<svg xmlns="http://www.w3.org/2000/svg" xmlns:xlink="http://www.w3.org/1999/xlink" height="65" width="90.9319999999999">
  <defs>
    <rect id="rect-6" opacity="1" x="33.821924496804286" y="46.8833288912582" width="57.110075503195276" height="18.116671108741798"/>
  </defs>
  <g opacity="1">
    <g opacity="1">
      <g opacity="1">
        <g opacity="1">
          <g opacity="1">
            <path fill="rgb(64,205,126)" fill-opacity="1" opacity="1" fill-rule="evenodd" d="M40.99334784889816 21.281566497867512C38.13193475150238 24.36742070895489 33.57579309358004 28.607492670575297 33.65711404178189 28.56743070362434C35.04932867499757 31.45622334754754 37.49654707621858 34.61353944562851 37.49654707621858 34.61353944562851C37.49654707621858 34.61353944562851 39.50463235714962 33.226529184434504 45.46599999999994 26.722414712153146C51.19533187064765 33.026219349679714 55.85014294572157 37.31068430170524 59.43043322522171 39.57797507995681C63.05301039778681 41.85067963752606 67.26760407326138 42.97782849147062 72.08505704473899 42.97782849147062C75.79871367929016 42.97782849147062 79.08082714871685 42.09971348614014 81.91947038061612 40.33482142857086C84.81015901936456 38.573177638592206 87.03618444147654 35.97456356609758 88.59537808833335 32.546558502131745C90.15565601449954 29.12180170575653 90.93199999999986 25.38629397654549 90.93199999999986 21.35519389658819C90.93199999999986 15.458505463752454 89.16462472574631 10.446428571428427 85.63854841171405 6.309218416844263C82.14933759419999 2.126532515991442 78.26761766669834 0.07146188699360322 72.58274124773432 0.07146188699360322C72.4200993513306 0.07146188699360322 72.39841376514345 0 72.39841376514345 0.1699926705756906L72.39841376514345 6.161963619402901L73.97929299818742 6.161963619402901L73.97929299818742 2.2196495202558335C73.97929299818742 2.2196495202558335 77.84583301535807 9.189349013859148 77.7135509396164 9.324693496801578C77.373087236478 9.203424840085162 79.30961008299138 10.55470415778237 80.47846317847932 11.98177638592734C82.67412877992928 14.55115605010641 83.775756558237 17.828658049040268 83.775756558237 21.81319962686537C83.775756558237 25.440431769722466 82.67412877992926 28.538196295308772 80.47846317847932 31.10757595948784C78.27520762186386 33.63256263326179 75.22946704187721 34.88747667910399 71.32606152818838 34.88747667910399C68.21092707240282 34.88747667910399 65.06868563388332 33.9595549040507 61.90801144710473 32.09938033048996C58.78528703615366 30.17965418443454 54.795139177716194 26.577325426438858 49.93539931317361 21.281566497867505C52.887891872555464 18.52811833688673 55.50967924258313 16.260827558635164 57.79750858532852 14.477528651385724C56.39011404178183 11.617970415778089 54.01228951635973 8.53211620469071 54.01228951635973 8.53211620469071C54.01228951635973 8.53211620469071 48.67221391777154 13.205290511726892 45.465999999999916 16.59539912046885C41.843422827434814 12.764608875266344 38.3607176857769 9.514175772920975 35.01029461986066 6.844099813432737C31.70757984355617 4.116637793176909 28.91122350472187 2.300856210021286 26.619057044739044 1.3935067963752443C24.330143422684298 0.4850746268656615 21.801604073261423 0.034648187633259754 19.050787465420154 0.034648187633259754C13.365911046456123 0.034648187633259754 8.760976819612669 2.1265325159914408 5.224057712486851 6.309218416844263C1.742436850138316 10.495152585287707 0 15.508312233475271 0 21.355193896588197C0 27.610274520255487 1.6459359916054552 32.77826825692919 4.952987885147372 36.858092350745764C8.300158113135538 40.94333022388004 12.951716350281385 42.977828491470625 18.915252551750427 42.977828491470625C19.284991796241506 42.977828491470625 19.139698368787535 43.02222148187574 19.251379137651412 42.822994402984484C19.100664313650643 41.088419509594324 19.251379137651412 36.98369203091634 19.251379137651412 36.98369203091634L17.52629075646282 36.98369203091634L17.52629075646282 40.928171641790485C17.52629075646282 40.928171641790485 13.65432934274538 33.959554904050705 13.7855271391777 33.824210421108276C14.134665076790977 33.94439632196115 13.609873891061701 33.63905916844304 13.070987074310775 33.30232209488227C11.412039730993023 32.244469616204256 10.014403701230554 30.76325959488231 8.871573309167214 28.84028518123628C7.725490079175801 26.93138659381626 7.156243441762846 24.581806369935695 7.156243441762846 21.81319962686537C7.156243441762846 17.828658049040268 8.250281264905075 14.55115605010641 10.453536821520546 11.981776385927343C12.656792378136014 9.412396721748278 15.429294572164437 8.12608275586343 18.775380520843246 8.12608275586343C21.114170991128464 8.12608275586343 23.272971096060253 8.553771321961506 25.244190880473116 9.412396721748273C27.213242106267256 10.266691098080887 29.504324286940726 11.708921908315403 32.12177453973095 13.72176505863521C34.73922479252118 15.688049706822813 37.696054469140456 18.203291577824913 40.99334784889816 21.281566497867512L40.99334784889816 21.281566497867512Z"/>
          </g>
          <g opacity="1">
            <g opacity="1">
              <path fill="rgb(81,91,96)" fill-opacity="1" opacity="1" fill-rule="evenodd" d="M19.54196599255942 43.00056636460528C19.406431078889668 43.00056636460528 19.273064723838637 42.99515258528758 19.14511976533439 42.98324227078865C19.21668219975202 42.981076759061565 19.176563865305777 42.95617337420017 19.251379137651472 42.82299440298481C19.100664313650707 41.088419509594644 19.251379137651472 36.983692030916664 19.251379137651472 36.983692030916664L17.526290756462885 36.983692030916664L17.526290756462885 40.92817164179081C17.526290756462885 40.92817164179081 13.78552713917776 34.195595682302624 13.782274301249686 33.83936900319816C13.782274301249686 33.83178971215339 13.78552713917776 33.82637593283569 13.78552713917776 33.8242104211086C14.134665076791038 33.94439632196148 14.475128779929452 34.0548374200425 14.805833969283643 34.14903718017043C16.143834637031425 34.643856609807955 17.675921301154286 34.887476679104324 19.398841123724157 34.887476679104324C21.342953925403066 34.887476679104324 23.25562262711059 34.55507062899772 25.13576294953738 33.890258528784514C28.60003534293621 32.68731676439221 31.15785023371175 30.627915111940208 32.557654822092935 29.446628464818687L33.30255470762188 28.820795575692895C33.45760664886008 28.69303038379524 33.5757930935801 28.607492670575624 33.65711404178195 28.567430703624666C35.049328674997625 31.456223347547866 37.49654707621865 34.61353944562884 37.49654707621865 34.61353944562884C37.49654707621865 34.61353944562884 32.336461842983894 40.189732142856904 25.42851836306403 42.19066497867777C24.134973146999926 42.5209055170573 22.79155108270535 42.749367004264116 21.38740937708674 42.874966684434696C20.820331298292498 42.8998700692961 20.15783664027476 43.00056636460526 19.541965992559412 43.00056636460526L19.54196599255942 43.00056636460528Z"/>
            </g>
            <g opacity="1">
              <path fill="rgb(81,91,96)" fill-opacity="1" opacity="1" fill-rule="evenodd" d="M57.84087975770273 14.580390458421899C57.824615568062356 14.545742270788638 57.80726709911262 14.511094083155376 57.792087188781615 14.47969416311273C57.792087188781615 14.477528651385654 57.79425574740033 14.477528651385654 57.7975085853284 14.477528651385654C57.11224406181414 13.084021855010409 56.194943766097275 11.637460021321726 55.43594824954667 10.520055970149034C54.63791867785917 9.344183102345212 54.0122895163596 8.53211620469064 54.0122895163596 8.53211620469064C54.0122895163596 8.53211620469064 59.162616235810134 2.958089019189651 66.07489683296743 0.957156183368782C67.36302065248474 0.6247501332621763 68.71620123056354 0.39845415778243587 70.11058442239792 0.2706889658847827C70.68308389773895 0.24903384861399447 71.34340999713797 0.14833755330482745 71.9571120862346 0.14833755330482745C72.10674263092602 0.14833755330482745 72.25528889630806 0.15483408848606428 72.3984137651433 0.16999267057561565L72.3984137651433 6.161963619402826L73.97929299818728 6.161963619402826L73.97929299818728 2.219649520255759C73.97929299818728 2.219649520255759 77.71355093961625 8.952225479743941 77.71571949823496 9.309534914711952C77.71571949823496 9.317114205756729 77.71355093961625 9.321445229210884 77.71355093961625 9.324693496801503C77.37308723647786 9.203424840085088 77.0337078126488 9.092983742004066 76.69324410951037 8.999866737739673C75.3552434417626 8.505047308102153 73.82207249833037 8.251682436033928 72.10999546885407 8.251682436033928C70.1550398740816 8.251682436033928 68.24779256892086 8.586253997867614 66.36331512925665 9.257562633262056C62.903379853095245 10.461587153517906 60.34556496231971 12.520988805969901 58.94250753601045 13.699027185500801L58.19652337117214 14.32702558635367C58.038218592005876 14.452625266524244 57.922200705904565 14.541411247334478 57.840879757702716 14.580390458421899L57.84087975770273 14.580390458421899Z"/>
            </g>
          </g>
          <g opacity="1">
            <g opacity="1">
              <path fill="rgb(64,205,126)" fill-opacity="1" opacity="1" fill-rule="evenodd" d="M4.1842338548125495 64.99999999999996L8.09522932366688 64.99999999999996L10.349446007822175 55.16965951492546L12.5873985023371 64.99999999999996L16.513573881522447 64.99999999999996L20.653352284651312 46.8833288912582L16.804160736430394 46.8833288912582L14.55428116951253 56.790545042644L12.301148764666591 46.88332889125821L8.38147906133739 46.88332889125821L6.133768053038244 56.790545042644L3.849191548220924 46.88332889125821L0 46.88332889125821L4.1842338548125495 64.99999999999996Z"/>
            </g>
            <g opacity="1">
              <path fill="rgb(64,205,126)" fill-opacity="1" opacity="1" fill-rule="evenodd" d="M32.388507249833076 64.99999999999996L32.388507249833076 61.07500999466952L25.783077697224098 61.07500999466952L25.783077697224098 57.75311500533055L30.665587427263205 57.75311500533055L30.665587427263205 53.83245602345427L25.783077697224098 53.83245602345427L25.783077697224098 50.81048440831572L32.388507249833076 50.81048440831572L32.388507249833076 46.8833288912582L22.05315687303255 46.8833288912582L22.05315687303255 64.99999999999996L32.388507249833076 64.99999999999996Z"/>
            </g>
          </g>
          <g opacity="1">
            <g opacity="1">
              <path fill="rgb(81,91,96)" fill-opacity="1" opacity="1" fill-rule="evenodd" d="M34.329367213583836 60.55095615671647C34.654651006391234 61.399836753731385 35.12089110941518 62.157765858208975 35.71507617094337 62.836653784648206C36.358053801392664 63.538279584221755 37.072593866259595 64.0720782249467 37.86628632070966 64.44671175373134C38.65672593723165 64.81593150319827 39.50463235714961 64.99999999999997 40.40892130115419 64.99999999999997L40.42843832872263 64.99999999999997C41.33272727272721 64.99999999999997 42.18388653057325 64.82242803837951 42.98191610226073 64.46836687100212C43.77994567394823 64.11430570362472 44.49448573881516 63.60432769189765 45.12553629686151 62.940598347547976C45.74465978250493 62.28336553837955 46.21957412000374 61.52976745735611 46.54485791281114 60.696045442430744C46.86255175045304 59.86881996268663 47.01868797100059 58.98529117803845 47.01868797100059 58.053038379530996L43.29201998473712 58.053038379530996C43.29201998473712 58.46665111940306 43.21069903653526 58.84994669509602 43.06323705046258 59.21916644456296C42.908185109224384 59.5883861940299 42.70867771630252 59.90888192963758 42.447366402747235 60.18173640724951C42.18822364781067 60.46217017590622 41.87811976533428 60.67655583688702 41.537656062195865 60.836803704690865C41.19285524182003 60.991637793177006 40.82311599732894 61.07500999466954 40.424101211485194 61.07500999466954C40.02942354287888 61.07500999466954 39.65534718115036 60.991637793177006 39.30512496422773 60.806486540511756C38.96032414385189 60.637576625799596 38.64696742344742 60.393956556503234 38.391077506438926 60.092950426439266C38.12217623771814 59.78761327292115 37.91724744824948 59.44329690831562 37.76761690355807 59.04484275053309C37.6223234761041 58.64638859275059 37.54859248306776 58.22303105010667 37.54859248306776 57.76719083155656L37.54859248306776 54.12588286247345C37.54859248306776 53.667877132196274 37.6223234761041 53.240188566098205 37.76761690355807 52.84173440831569C37.917247448249476 52.445445762260256 38.122176237718136 52.08813632729225 38.391077506438926 51.78821295309182C38.646967423447414 51.49262060234555 38.96032414385188 51.25441431236688 39.30512496422773 51.06926305970164C39.65534718115037 50.89927038912595 40.02942354287888 50.810484408315716 40.424101211485194 50.810484408315716C40.83070595249445 50.810484408315716 41.20044519698553 50.89927038912595 41.537656062195865 51.06926305970164C41.87811976533428 51.25441431236688 42.18822364781067 51.49262060234555 42.447366402747235 51.78821295309182C42.70867771630252 52.08813632729225 42.908185109224384 52.445445762260256 43.06323705046258 52.84823094349693C43.210699036535274 53.25426439232421 43.29201998473712 53.68303571428583 43.29201998473712 54.12588286247345L47.01868797100059 54.12588286247345C47.01868797100059 53.168726679104594 46.86255175045304 52.24621868336901 46.54485791281114 51.38001399253746C46.21957412000374 50.5105610341153 45.74465978250493 49.73314232409398 45.12553629686151 49.039095815565204C44.49448573881515 48.34071828358227 43.77994567394823 47.805836886993795 42.98191610226073 47.43769989339039C42.18388653057325 47.068480143923445 41.332727272727205 46.8833288912582 40.42843832872263 46.8833288912582L40.40892130115419 46.8833288912582C39.5046323571496 46.8833288912582 38.65672593723165 47.068480143923445 37.86628632070966 47.453941231343485C37.072593866259595 47.830740271855205 36.35805380139267 48.36020788912599 35.71507617094337 49.054254397654766C35.115469712868396 49.73314232409399 34.65031388915381 50.5105610341153 34.3250300963464 51.36485541044791C34.007336258704505 52.2213152985076 33.83710440713529 53.13840951492549 33.821924496804286 54.110724280383906L33.821924496804286 57.85381130063974C33.8371044071353 58.801222681236744 34.007336258704505 59.69991004797447 34.329367213583836 60.55095615671647L34.329367213583836 60.55095615671647Z"/>
            </g>
            <g opacity="1">
              <path fill="rgb(81,91,96)" fill-opacity="1" opacity="1" fill-rule="evenodd" d="M56.77394891729467 64.99999999999996L56.77394891729467 61.07500999466952L52.183110321472874 61.07500999466952L52.183110321472874 46.8833288912582L48.45752661451877 46.8833288912582L48.45752661451877 64.99999999999996L56.77394891729467 64.99999999999996Z"/>
            </g>
            <g opacity="1">
              <rect fill="rgb(81,91,96)" fill-opacity="1" opacity="1" x="58.21061900219411" y="46.8833288912582" width="3.733173662119613" height="18.116671108741755" rx="0" ry="0"/>
            </g>
            <g opacity="1">
              <path fill="rgb(81,91,96)" fill-opacity="1" opacity="1" fill-rule="evenodd" d="M67.3977175903843 64.99999999999996L67.3977175903843 58.47639592217488L69.60097314699976 64.99999999999996L73.57051969855944 64.99999999999996L75.72498268625378 58.68103678038384L75.72498268625378 64.99999999999996L79.45056639320791 64.99999999999996L79.45056639320791 46.8833288912582L75.72498268625378 46.8833288912582L71.58412000381556 59.10114605543715L67.46385862825514 46.88332889125821L63.6667124868834 46.88332889125821L63.6667124868834 64.99999999999996L67.3977175903843 64.99999999999996Z"/>
            </g>
            <g opacity="1">
              <path fill="rgb(81,91,96)" fill-opacity="1" opacity="1" fill-rule="evenodd" d="M86.3411614041778 64.99999999999983L86.4593478488978 64.99999999999983C87.07304993799444 64.99999999999983 87.65639220642905 64.87656583155632 88.20395325765485 64.63078025053288C88.75043002957128 64.38282915778235 89.22426008776073 64.04284381663096 89.62327487360447 63.614072494669365C90.0222896594482 63.19179770788899 90.33998349709012 62.68181969616191 90.57635638653016 62.109041844349555C90.81272927597021 61.529767457355966 90.93199999999959 60.90501732409371 90.93199999999959 60.24778451492528C90.93199999999959 59.33069029850739 90.7097227415812 58.495885527718485 90.27384245921928 57.73795642324089C89.83037222169185 56.98977212153513 89.2535356291134 56.41699426972278 88.52923705046226 56.00879530916842C89.25353562911341 55.609258395522374 89.83037222169186 55.034315031982935 90.27384245921928 54.29046175373134C90.7097227415812 53.54444296375267 90.93199999999959 52.71072094882731 90.93199999999959 51.788212953091715C90.93199999999959 51.1288146321962 90.81272927597021 50.51056103411519 90.57635638653016 49.92803837953098C90.33998349709012 49.34226745735615 90.02228965944822 48.83986873667385 89.62327487360447 48.418676705757015C89.22426008776073 47.99098813965894 88.75043002957126 47.65858208955233 88.20395325765485 47.40305170575703C87.65639220642905 47.1496868336888 87.07304993799443 47.024087153518224 86.4593478488978 47.024087153518224L81.17348621577753 47.024087153518224L81.17348621577753 64.99999999999983L86.3411614041778 64.99999999999983L86.3411614041778 64.99999999999983Z"/>
            </g>
          </g>
        </g>
      </g>
    </g>
  </g>
</svg>