<?xml version="1.0" standalone="no"?><!DOCTYPE svg PUBLIC "-//W3C//DTD SVG 1.1//EN" "http://www.w3.org/Graphics/SVG/1.1/DTD/svg11.dtd"><svg width="100%" height="100%" viewBox="0 0 800 800" version="1.1" xmlns="http://www.w3.org/2000/svg" xmlns:xlink="http://www.w3.org/1999/xlink" xml:space="preserve" style="fill-rule:evenodd;clip-rule:evenodd;stroke-linejoin:round;stroke-miterlimit:1.41421;"><g id="Layer1"><g><path d="M400.006,800c220.306,0 399.994,-179.688 399.994,-400.006c0,-220.306 -179.688,-399.994 -399.994,-399.994c-220.319,0 -400.006,179.688 -400.006,399.994c0,220.319 179.688,400.006 400.006,400.006Z" style="fill:#63919e;"/><path d="M550.906,351.579l75.4499,224.21l40.9658,121.751c-70.8236,63.6718 -164.495,102.434 -267.225,102.46l-0.180389,0c-102.73,-0.0257193 -196.401,-38.788 -267.225,-102.46l40.9659,-121.751l75.4498,-224.197l150.9,-0.0129776l150.9,0Z" style="fill:#5a514e;"/><path d="M502.028,452.48l51.0043,173.76l36.9453,125.848c-56.494,30.5408 -121.184,47.8988 -189.933,47.9117l-0.0773349,0c-68.7489,-0.0129776 -133.426,-17.3579 -189.932,-47.9117l36.9453,-125.848l51.0043,-173.76l204.043,0Z" style="fill:#7d6f6c;"/><path d="M224.313,130.836l105.372,165.216l-131.686,28.9814l26.314,-194.198Z" style="fill:#5a514e;"/><path d="M575.777,130.836l-105.385,165.229l131.699,28.9684l-26.314,-194.198Z" style="fill:#5a514e;"/><path d="M592.374,253.836l26.314,194.365l-213.128,65.6689l-224.249,-65.6689l26.3269,-194.365l192.368,-62.6536l192.368,62.6536Z" style="fill:#5a514e;"/><path d="M311.374,258.527c51.9708,0 94.1093,41.6617 94.1093,93.0656c0,51.3909 -42.1385,93.0524 -94.1093,93.0524c-51.9708,0 -94.0964,-41.6615 -94.0964,-93.0524c0,-51.4039 42.1256,-93.0656 94.0964,-93.0656Z" style="fill:#fff;"/><path d="M488.639,258.527c51.9579,0 94.0964,41.6617 94.0964,93.0656c0,51.3909 -42.1385,93.0524 -94.0964,93.0524c-51.9708,0 -94.0964,-41.6615 -94.0964,-93.0524c0,-51.4039 42.1256,-93.0656 94.0964,-93.0656Z" style="fill:#fff;"/><path d="M374.865,406.063c4.085,-59.3804 47.1642,-57.3573 50.2827,0l-25.1413,53.2852l-25.1414,-53.2852Z" style="fill:#ed8c45;"/><path d="M311.374,328.062c13.0023,0 23.5306,10.5282 23.5306,23.5306c0,12.9894 -10.5282,23.5176 -23.5306,23.5176c-12.9895,0 -23.5177,-10.5282 -23.5177,-23.5176c0,-13.0024 10.5282,-23.5306 23.5177,-23.5306Z" style="fill:#373639;"/><path d="M323.667,328.062c6.19835,0 11.237,5.03839 11.237,11.2367c0,6.21133 -5.03862,11.237 -11.237,11.237c-6.21121,0 -11.2369,-5.02564 -11.2369,-11.237c0,-6.19835 5.0257,-11.2367 11.2369,-11.2367Z" style="fill:#fff;"/><path d="M488.639,328.062c12.9895,0 23.5176,10.5282 23.5176,23.5306c0,12.9894 -10.5282,23.5176 -23.5176,23.5176c-12.9895,0 -23.5306,-10.5282 -23.5306,-23.5176c0,-13.0024 10.5411,-23.5306 23.5306,-23.5306Z" style="fill:#373639;"/><path d="M500.92,328.062c6.19835,0 11.2369,5.03839 11.2369,11.2367c0,6.21133 -5.03856,11.237 -11.2369,11.237c-6.21127,0 -11.2369,-5.02564 -11.2369,-11.237c0,-6.19835 5.02565,-11.2367 11.2369,-11.2367Z" style="fill:#fff;"/><path d="M345.497,575.867c2.2551,2.75763 3.60819,6.28848 3.60819,10.1287c0,8.84012 -7.15197,16.005 -16.0049,16.005c-8.82715,0 -15.992,-7.16483 -15.992,-16.005c0,-3.8402 1.35309,-7.37105 3.62111,-10.1287c2.93808,3.58253 7.38392,5.86329 12.3709,5.86329c4.99993,0 9.45863,-2.28076 12.3967,-5.86329Z" style="fill:#c4bab7;"/><path d="M392.777,575.867c2.26802,2.75763 3.62111,6.28848 3.62111,10.1287c0,8.84012 -7.16483,16.005 -16.0049,16.005c-8.82721,0 -15.992,-7.16483 -15.992,-16.005c0,-3.8402 1.35309,-7.37105 3.62111,-10.1287c2.92522,3.58253 7.38386,5.86329 12.3709,5.86329c4.99993,0 9.44571,-2.28076 12.3838,-5.86329Z" style="fill:#c4bab7;"/><path d="M440.07,575.867c2.25516,2.75763 3.60819,6.28848 3.60819,10.1287c0,8.84012 -7.15191,16.005 -15.992,16.005c-8.84006,0 -16.0049,-7.16483 -16.0049,-16.005c0,-3.8402 1.36595,-7.37105 3.62105,-10.1287c2.93808,3.58253 7.38392,5.86329 12.3838,5.86329c4.98701,0 9.44571,-2.28076 12.3838,-5.86329Z" style="fill:#c4bab7;"/><path d="M487.363,575.867c2.2551,2.75763 3.60819,6.28848 3.60819,10.1287c0,8.84012 -7.16483,16.005 -15.992,16.005c-8.84006,0 -16.0049,-7.16483 -16.0049,-16.005c0,-3.8402 1.36595,-7.37105 3.62111,-10.1287c2.92522,3.58253 7.38386,5.86329 12.3838,5.86329c4.98707,0 9.44577,-2.28076 12.3838,-5.86329Z" style="fill:#c4bab7;"/><path d="M369.955,537.723c2.26796,2.75763 3.62105,6.28848 3.62105,10.1287c0,8.83989 -7.16483,16.0047 -16.0049,16.0047c-8.84006,0 -15.992,-7.16483 -15.992,-16.0047c0,-3.8402 1.35309,-7.37105 3.60819,-10.1287c2.93813,3.56932 7.39678,5.86329 12.3838,5.86329c4.99993,0 9.44571,-2.29397 12.3838,-5.86329Z" style="fill:#c4bab7;"/><path d="M417.236,537.723c2.26802,2.75763 3.62105,6.28848 3.62105,10.1287c0,8.83989 -7.15191,16.0047 -15.992,16.0047c-8.84006,0 -16.0049,-7.16483 -16.0049,-16.0047c0,-3.8402 1.35304,-7.37105 3.62105,-10.1287c2.93808,3.56932 7.39678,5.86329 12.3838,5.86329c4.98701,0 9.44571,-2.29397 12.3709,-5.86329Z" style="fill:#c4bab7;"/><path d="M464.529,537.723c2.26796,2.75763 3.62105,6.28848 3.62105,10.1287c0,8.83989 -7.16483,16.0047 -16.0049,16.0047c-8.82721,0 -15.992,-7.16483 -15.992,-16.0047c0,-3.8402 1.35309,-7.37105 3.62111,-10.1287c2.92522,3.56932 7.38392,5.86329 12.3709,5.86329c4.99993,0 9.45863,-2.29397 12.3838,-5.86329Z" style="fill:#c4bab7;"/><path d="M369.955,618.109c2.26796,2.75763 3.62105,6.28848 3.62105,10.1287c0,8.83989 -7.16483,16.0047 -16.0049,16.0047c-8.84006,0 -15.992,-7.16483 -15.992,-16.0047c0,-3.8402 1.35309,-7.37105 3.60819,-10.1287c2.93813,3.5823 7.39678,5.86329 12.3838,5.86329c4.99993,0 9.44571,-2.28099 12.3838,-5.86329Z" style="fill:#c4bab7;"/><path d="M417.236,618.109c2.26802,2.75763 3.62105,6.28848 3.62105,10.1287c0,8.83989 -7.15191,16.0047 -15.992,16.0047c-8.84006,0 -16.0049,-7.16483 -16.0049,-16.0047c0,-3.8402 1.35304,-7.37105 3.62105,-10.1287c2.93808,3.5823 7.39678,5.86329 12.3838,5.86329c4.98701,0 9.44571,-2.28099 12.3709,-5.86329Z" style="fill:#c4bab7;"/><path d="M464.529,618.109c2.26796,2.75763 3.62105,6.28848 3.62105,10.1287c0,8.83989 -7.16483,16.0047 -16.0049,16.0047c-8.82721,0 -15.992,-7.16483 -15.992,-16.0047c0,-3.8402 1.35309,-7.37105 3.62111,-10.1287c2.92522,3.5823 7.38392,5.86329 12.3709,5.86329c4.99993,0 9.45863,-2.28099 12.3838,-5.86329Z" style="fill:#c4bab7;"/><path d="M511.822,618.109c2.25516,2.75763 3.60819,6.28848 3.60819,10.1287c0,8.83989 -7.15191,16.0047 -15.992,16.0047c-8.84006,0 -16.0049,-7.16483 -16.0049,-16.0047c0,-3.8402 1.36595,-7.37105 3.62105,-10.1287c2.93808,3.5823 7.39678,5.86329 12.3838,5.86329c4.98701,0 9.44571,-2.28099 12.3838,-5.86329Z" style="fill:#c4bab7;"/><path d="M322.662,618.109c2.26802,2.75763 3.62105,6.28848 3.62105,10.1287c0,8.83989 -7.16483,16.0047 -15.992,16.0047c-8.84006,0 -16.0049,-7.16483 -16.0049,-16.0047c0,-3.8402 1.35304,-7.37105 3.62105,-10.1287c2.92522,3.5823 7.38392,5.86329 12.3838,5.86329c4.98701,0 9.44571,-2.28099 12.3709,-5.86329Z" style="fill:#c4bab7;"/><path d="M345.497,658.933c2.2551,2.75763 3.60819,6.28848 3.60819,10.1287c0,8.83989 -7.15197,16.0047 -16.0049,16.0047c-8.82715,0 -15.992,-7.16483 -15.992,-16.0047c0,-3.8402 1.35309,-7.37105 3.62111,-10.1287c2.93808,3.5823 7.38392,5.87603 12.3709,5.87603c4.99993,0 9.45863,-2.29374 12.3967,-5.87603Z" style="fill:#c4bab7;"/><path d="M392.777,658.933c2.26802,2.75763 3.62111,6.28848 3.62111,10.1287c0,8.83989 -7.16483,16.0047 -16.0049,16.0047c-8.82721,0 -15.992,-7.16483 -15.992,-16.0047c0,-3.8402 1.35309,-7.37105 3.62111,-10.1287c2.92522,3.5823 7.38386,5.87603 12.3709,5.87603c4.99993,0 9.44571,-2.29374 12.3838,-5.87603Z" style="fill:#c4bab7;"/><path d="M440.07,658.933c2.25516,2.75763 3.60819,6.28848 3.60819,10.1287c0,8.83989 -7.15191,16.0047 -15.992,16.0047c-8.84006,0 -16.0049,-7.16483 -16.0049,-16.0047c0,-3.8402 1.36595,-7.37105 3.62105,-10.1287c2.93808,3.5823 7.38392,5.87603 12.3838,5.87603c4.98701,0 9.44571,-2.29374 12.3838,-5.87603Z" style="fill:#c4bab7;"/><path d="M487.363,658.933c2.2551,2.75763 3.60819,6.28848 3.60819,10.1287c0,8.83989 -7.16483,16.0047 -15.992,16.0047c-8.84006,0 -16.0049,-7.16483 -16.0049,-16.0047c0,-3.8402 1.36595,-7.37105 3.62111,-10.1287c2.92522,3.5823 7.38386,5.87603 12.3838,5.87603c4.98707,0 9.44577,-2.29374 12.3838,-5.87603Z" style="fill:#c4bab7;"/><path d="M298.204,658.933c2.25516,2.75763 3.62111,6.28848 3.62111,10.1287c0,8.83989 -7.16483,16.0047 -16.0049,16.0047c-8.84006,0 -16.0049,-7.16483 -16.0049,-16.0047c0,-3.8402 1.36598,-7.37105 3.62108,-10.1287c2.93811,3.5823 7.39681,5.87603 12.3838,5.87603c4.98701,0 9.44571,-2.29374 12.3838,-5.87603Z" style="fill:#c4bab7;"/><path d="M534.643,658.933c2.25516,2.75763 3.62111,6.28848 3.62111,10.1287c0,8.83989 -7.16483,16.0047 -16.0049,16.0047c-8.84006,0 -15.992,-7.16483 -15.992,-16.0047c0,-3.8402 1.35309,-7.37105 3.60819,-10.1287c2.93808,3.5823 7.39678,5.87603 12.3838,5.87603c4.99993,0 9.44571,-2.29374 12.3838,-5.87603Z" style="fill:#c4bab7;"/><path d="M369.955,703.017c2.26796,2.75763 3.62105,6.28848 3.62105,10.1414c0,8.82738 -7.16483,15.9922 -16.0049,15.9922c-8.84006,0 -15.992,-7.16483 -15.992,-15.9922c0,-3.85294 1.35309,-7.3838 3.60819,-10.1414c2.93813,3.5823 7.39678,5.86329 12.3838,5.86329c4.99993,0 9.44571,-2.28099 12.3838,-5.86329Z" style="fill:#c4bab7;"/><path d="M417.236,703.017c2.26802,2.75763 3.62105,6.28848 3.62105,10.1287c0,8.84012 -7.15191,16.005 -15.992,16.005c-8.84006,0 -16.0049,-7.16483 -16.0049,-16.005c0,-3.8402 1.35304,-7.37105 3.62105,-10.1287c2.93808,3.5823 7.39678,5.86329 12.3838,5.86329c4.98701,0 9.44571,-2.28099 12.3709,-5.86329Z" style="fill:#c4bab7;"/><path d="M464.529,703.017c2.26796,2.75763 3.62105,6.28848 3.62105,10.1287c0,8.84012 -7.16483,16.005 -16.0049,16.005c-8.82721,0 -15.992,-7.16483 -15.992,-16.005c0,-3.8402 1.35309,-7.37105 3.62111,-10.1287c2.92522,3.5823 7.38392,5.86329 12.3709,5.86329c4.99993,0 9.45863,-2.28099 12.3838,-5.86329Z" style="fill:#c4bab7;"/><path d="M511.822,703.017c2.25516,2.75763 3.60819,6.28848 3.60819,10.1287c0,8.84012 -7.15191,16.005 -15.992,16.005c-8.84006,0 -16.0049,-7.16483 -16.0049,-16.005c0,-3.8402 1.36595,-7.37105 3.62105,-10.1287c2.93808,3.5823 7.39678,5.86329 12.3838,5.86329c4.98701,0 9.44571,-2.28099 12.3838,-5.86329Z" style="fill:#c4bab7;"/><path d="M322.662,703.017c2.26802,2.75763 3.62105,6.28848 3.62105,10.1414c0,8.82738 -7.16483,15.9922 -15.992,15.9922c-8.84006,0 -16.0049,-7.16483 -16.0049,-15.9922c0,-3.85294 1.35304,-7.3838 3.62105,-10.1414c2.92522,3.5823 7.38392,5.86329 12.3838,5.86329c4.98701,0 9.44571,-2.28099 12.3709,-5.86329Z" style="fill:#c4bab7;"/><path d="M345.497,747.849c2.2551,2.75763 3.60819,6.28848 3.60819,10.1287c0,8.83989 -7.15197,16.0047 -16.0049,16.0047c-8.82715,0 -15.992,-7.16483 -15.992,-16.0047c0,-3.8402 1.35309,-7.37105 3.62111,-10.1287c2.93808,3.5823 7.38392,5.87603 12.3709,5.87603c4.99993,0 9.45863,-2.29374 12.3967,-5.87603Z" style="fill:#c4bab7;"/><path d="M392.777,747.849c2.26802,2.75763 3.62111,6.28848 3.62111,10.1287c0,8.83989 -7.16483,16.0047 -16.0049,16.0047c-8.82721,0 -15.992,-7.16483 -15.992,-16.0047c0,-3.8402 1.35309,-7.37105 3.62111,-10.1287c2.92522,3.5823 7.38386,5.87603 12.3709,5.87603c4.99993,0 9.44571,-2.29374 12.3838,-5.87603Z" style="fill:#c4bab7;"/><path d="M440.07,747.849c2.25516,2.75763 3.60819,6.28848 3.60819,10.1287c0,8.83989 -7.15191,16.0047 -15.992,16.0047c-8.84006,0 -16.0049,-7.16483 -16.0049,-16.0047c0,-3.8402 1.36595,-7.37105 3.62105,-10.1287c2.93808,3.5823 7.38392,5.87603 12.3838,5.87603c4.98701,0 9.44571,-2.29374 12.3838,-5.87603Z" style="fill:#c4bab7;"/><path d="M487.363,747.849c2.2551,2.75763 3.60819,6.28848 3.60819,10.1287c0,8.83989 -7.16483,16.0047 -15.992,16.0047c-8.84006,0 -16.0049,-7.16483 -16.0049,-16.0047c0,-3.8402 1.36595,-7.37105 3.62111,-10.1287c2.92522,3.5823 7.38386,5.87603 12.3838,5.87603c4.98707,0 9.44577,-2.29374 12.3838,-5.87603Z" style="fill:#c4bab7;"/><clipPath id="tag1"><rect x="400.612" y="0.386733" width="399.388" height="799.613"/></clipPath><g clip-path="url(#tag1)"><path d="M400.612,800c0.0129186,0 0.0257783,0 0.0386379,0c-0.0128596,0 -0.0257193,0 -0.0386379,0ZM400.909,800c0.0257193,0 0.0386379,0 0.0644162,0c-0.0257783,0 -0.0386969,0 -0.0644162,0ZM401.089,800l0.103054,0c-0.0386379,0 -0.0772759,0 -0.103054,0ZM401.269,800l0.373697,0c-0.128832,0 -0.244805,0 -0.373697,0ZM401.746,800c0.0128596,0 0.0128596,0 0.0257783,-0.0129776c0.0257783,0 0.0386379,0 0.0644162,0c-0.0257783,0 -0.0644162,0.0129776 -0.0901945,0.0129776ZM401.901,799.987l0.116032,0c-0.0386969,0 -0.0773349,0 -0.116032,0ZM402.133,799.987l0.0514976,0c-0.0128596,0 -0.0386379,0 -0.0514976,0ZM402.197,799.987l0.193308,0c-0.0644752,0 -0.128891,0 -0.193308,0ZM402.506,799.987l0.30928,0c-0.115973,0 -0.193308,0 -0.30928,0ZM402.88,799.987l0.373697,0c-0.115973,0 -0.244864,0 -0.373697,0ZM403.318,799.987l0.103113,0c0.0773349,0 0.141751,-0.0127417 0.206167,-0.0127417c-0.103054,0.0127417 -0.193308,0.0127417 -0.30928,0.0127417ZM403.731,799.974c0.0901945,0 0.193308,0 0.296362,0c-0.103054,0 -0.206167,0 -0.296362,0ZM404.117,799.974l0.322199,0c-0.103113,0 -0.219086,0 -0.322199,0ZM404.478,799.974c0.270643,-0.0129776 0.528366,-0.0129776 0.78609,-0.0129776c-0.244864,0 -0.528366,0 -0.78609,0.0129776ZM405.29,799.961c0.128832,0 0.231946,0 0.360778,0c-0.128832,0 -0.231946,0 -0.360778,0ZM405.702,799.961c0.115973,0 0.244864,-0.0129776 0.360837,-0.0129776c-0.115973,0 -0.244864,0.0129776 -0.360837,0.0129776ZM406.089,799.948c0.257724,0 0.528307,0 0.786031,-0.0127417c-0.244805,0.0127417 -0.541226,0.0127417 -0.786031,0.0127417ZM406.888,799.936c0.128832,0 0.257724,0 0.386556,0c-0.128832,0 -0.257724,0 -0.386556,0ZM407.3,799.936c66.0299,-1.18568 128.168,-18.3761 182.678,-47.8473l0,-0.0127417c27.9506,-15.1159 53.9038,-33.466 77.3441,-54.5353l-0.103113,-0.309339c81.442,-73.3106 132.781,-179.469 132.781,-297.237c0,218.476 -175.165,396.037 -392.7,399.942ZM800,399.388c0,-0.0127417 0,-0.0257193 0,-0.038461c0,0.0127417 0,0.0257193 0,0.038461ZM800,399.13c0,-0.0386969 0,-0.0644162 0,-0.103113c0,0.0386969 0,0.0644162 0,0.103113ZM800,399.014c-0.502588,-213.953 -170.474,-389.349 -382.326,-398.628c212.393,9.22662 381.824,184.082 382.326,398.628Z" style="fill:url(#tag2);"/></g><path d="M400.277,800c0.0257783,0 0.0515566,0 0.0644752,0c-0.0129186,0 -0.0515566,0 -0.0644752,0ZM400.573,800c0.0386379,0 0.0644162,0 0.0901945,0l-0.0129186,0l-0.0772759,0ZM400.909,800l0.0772759,0l-0.0128596,0c-0.0257783,0 -0.0386969,0 -0.0644162,0ZM401.295,800c0.0129186,0 0.0257783,0 0.0515566,0c-0.0129186,0 -0.0386379,0 -0.0515566,0ZM401.927,799.987l0.0515566,0c-0.0257783,0 -0.0257783,0 -0.0515566,0ZM402.249,799.987c0.0128596,0 0.0386379,0 0.0514976,0c-0.0128596,0 -0.0386379,0 -0.0514976,0ZM402.584,799.987l0.0129186,0l-0.0129186,0ZM667.219,697.231l-40.8627,-121.441l-39.6257,-117.743l31.9582,-9.84506l-16.675,-123.194l0.0773349,0.0257193l-26.314,-194.198l-62.0995,97.3695l-113.671,-37.0226l0,-191.183c5.91485,0 11.8039,0.128832 17.6672,0.386733c211.852,9.27806 381.824,184.675 382.326,398.628l0,0.979221c0,117.769 -51.3394,223.927 -132.781,297.237Z" style="fill:#5c818a;fill-rule:nonzero;"/><path d="M400.148,800c0.0772759,0 0.167529,0 0.244805,0c-0.0257783,0 -0.0257783,0 -0.0514976,0l-0.193308,0ZM400.535,800c0.0773349,0 0.15467,0 0.244864,0l-0.244864,0ZM400.921,800c0.0773349,0 0.167529,0 0.244864,0l-0.244864,0ZM401.282,800c0.103054,0 0.219027,0 0.335,0l-0.32214,0l-0.0128596,0ZM401.772,799.987c0.0644162,0 0.128832,0 0.193308,0c-0.0129186,0 -0.0129186,0 -0.0386969,0c0,0 -0.0128596,0 -0.0257783,0l-0.128832,0ZM402.146,799.987c0.0515566,0 0.115973,0 0.167529,0l-0.0129186,0l-0.103054,0l-0.0129186,0c-0.0128596,0 -0.0128596,0 -0.0386379,0ZM402.738,799.987c0.0257783,0 0.0386379,0 0.0644162,0c-0.0257783,0 -0.0386379,0 -0.0644162,0ZM403.035,799.987c0.0386969,0 0.0644752,0 0.103113,0c-0.0386379,0 -0.0773349,0 -0.103113,0ZM403.396,799.987c0,0 0.0128596,0 0.0257783,0c-0.0129186,0 -0.0129186,0 -0.0257783,0ZM404.285,799.974c0,0 0.0129186,0 0.0257783,0c-0.0128596,0 -0.0128596,0 -0.0257783,0ZM589.978,752.076l-36.9453,-125.836l-42.4864,-144.714l76.1843,-23.4791l39.6257,117.743l40.8627,121.441l0.103113,0.309339c-23.4404,21.0693 -49.3936,39.4194 -77.3441,54.5353Z" style="fill:#554c4b;fill-rule:nonzero;"/><path d="M400.006,800l0,-71.5968c1.52056,0.48961 3.15716,0.747511 4.85817,0.747511c8.84006,0 15.992,-7.16483 15.992,-16.005c0,-3.8402 -1.35304,-7.37105 -3.62105,-10.1287c-2.92522,3.5823 -7.38392,5.86329 -12.3709,5.86329c-1.70101,0 -3.33761,-0.257665 -4.85817,-0.747511l0,-64.651c1.52056,0.48961 3.15716,0.760253 4.85817,0.760253c8.84006,0 15.992,-7.16483 15.992,-16.0047c0,-3.8402 -1.35304,-7.37105 -3.62105,-10.1287c-2.92522,3.5823 -7.38392,5.86329 -12.3709,5.86329c-1.70101,0 -3.33761,-0.257901 -4.85817,-0.747511l0,-60.1279c1.52056,0.489846 3.15716,0.760253 4.85817,0.760253c8.84006,0 15.992,-7.16483 15.992,-16.0047c0,-3.8402 -1.35304,-7.37105 -3.62105,-10.1287c-2.92522,3.56932 -7.38392,5.86329 -12.3709,5.86329c-1.70101,0 -3.33761,-0.257901 -4.85817,-0.747511l0,-30.5923l5.55401,1.62362l104.985,-32.3447l42.4864,144.714l36.9453,125.836l0,0.0127417c-54.5095,29.4712 -116.648,46.6616 -182.678,47.8473c-0.0257783,0 -0.0128596,0 -0.0257783,0c-0.128832,0 -0.257724,0 -0.386556,0l-0.0129186,0c-0.257724,0.0127417 -0.528307,0.0127417 -0.786031,0.0127417c-0.0129186,0 -0.0129186,0 -0.0257783,0c-0.115973,0 -0.244864,0.0129776 -0.360837,0.0129776l-0.412335,0c0,0 -0.0129186,0 -0.0257783,0c-0.257724,0 -0.515448,0 -0.78609,0.0129776l-0.360837,0c-0.0514976,0 -0.0514976,0 -0.0901945,0l-0.399475,0c-0.0644162,0 -0.128832,0.0127417 -0.206167,0.0127417c-0.0129186,0 -0.0257783,0 -0.0257783,0l-0.579864,0l-0.0129186,0l-0.206167,0l-0.0129186,0l-0.605642,0l-0.0128596,0c-0.0644752,0 -0.128891,0 -0.193308,0c-0.0129186,0.0129776 -0.0129186,0.0129776 -0.0257783,0.0129776c-0.0386379,0 -0.0644162,0 -0.103113,0c-0.0128596,0 -0.0257783,0 -0.0257783,0c-0.115973,0 -0.231946,0 -0.335,0l-0.0129186,0c-0.0257783,0 -0.0515566,0 -0.0773349,0c-0.0128596,0 -0.0128596,0 -0.0257193,0c-0.0773349,0 -0.167529,0 -0.244864,0l-0.0128596,0l-0.902063,0ZM462.596,747.849c-2.25516,2.75763 -3.62111,6.28848 -3.62111,10.1287c0,8.83989 7.16483,16.0047 16.0049,16.0047c8.82721,0 15.992,-7.16483 15.992,-16.0047c0,-3.8402 -1.35309,-7.37105 -3.60819,-10.1287c-2.93808,3.5823 -7.39678,5.87603 -12.3838,5.87603c-4.99993,0 -9.45857,-2.29374 -12.3838,-5.87603ZM415.303,747.849c-2.2551,2.75763 -3.62105,6.28848 -3.62105,10.1287c0,8.83989 7.16483,16.0047 16.0049,16.0047c8.84006,0 15.992,-7.16483 15.992,-16.0047c0,-3.8402 -1.35304,-7.37105 -3.60819,-10.1287c-2.93808,3.5823 -7.39678,5.87603 -12.3838,5.87603c-4.99993,0 -9.44577,-2.29374 -12.3838,-5.87603ZM487.054,703.017c-2.2551,2.75763 -3.62105,6.28848 -3.62105,10.1287c0,8.84012 7.16483,16.005 16.0049,16.005c8.84006,0 15.992,-7.16483 15.992,-16.005c0,-3.8402 -1.35304,-7.37105 -3.60819,-10.1287c-2.93808,3.5823 -7.39678,5.86329 -12.3838,5.86329c-4.98707,0 -9.44577,-2.28099 -12.3838,-5.86329ZM439.774,703.017c-2.26802,2.75763 -3.62111,6.28848 -3.62111,10.1287c0,8.84012 7.16483,16.005 15.992,16.005c8.84006,0 16.0049,-7.16483 16.0049,-16.005c0,-3.8402 -1.35309,-7.37105 -3.62105,-10.1287c-2.92522,3.5823 -7.38392,5.86329 -12.3838,5.86329c-4.98701,0 -9.44571,-2.28099 -12.3709,-5.86329ZM509.876,658.933c-2.2551,2.75763 -3.60819,6.28848 -3.60819,10.1287c0,8.83989 7.15197,16.0047 15.992,16.0047c8.84006,0 16.0049,-7.16483 16.0049,-16.0047c0,-3.8402 -1.36595,-7.37105 -3.62111,-10.1287c-2.93808,3.5823 -7.38386,5.87603 -12.3838,5.87603c-4.98707,0 -9.44577,-2.29374 -12.3838,-5.87603ZM462.596,658.933c-2.25516,2.75763 -3.62111,6.28848 -3.62111,10.1287c0,8.83989 7.16483,16.0047 16.0049,16.0047c8.82721,0 15.992,-7.16483 15.992,-16.0047c0,-3.8402 -1.35309,-7.37105 -3.60819,-10.1287c-2.93808,3.5823 -7.39678,5.87603 -12.3838,5.87603c-4.99993,0 -9.45857,-2.29374 -12.3838,-5.87603ZM415.303,658.933c-2.2551,2.75763 -3.62105,6.28848 -3.62105,10.1287c0,8.83989 7.16483,16.0047 16.0049,16.0047c8.84006,0 15.992,-7.16483 15.992,-16.0047c0,-3.8402 -1.35304,-7.37105 -3.60819,-10.1287c-2.93808,3.5823 -7.39678,5.87603 -12.3838,5.87603c-4.99993,0 -9.44577,-2.29374 -12.3838,-5.87603ZM487.054,618.109c-2.2551,2.75763 -3.62105,6.28848 -3.62105,10.1287c0,8.83989 7.16483,16.0047 16.0049,16.0047c8.84006,0 15.992,-7.16483 15.992,-16.0047c0,-3.8402 -1.35304,-7.37105 -3.60819,-10.1287c-2.93808,3.5823 -7.39678,5.86329 -12.3838,5.86329c-4.98707,0 -9.44577,-2.28099 -12.3838,-5.86329ZM439.774,618.109c-2.26802,2.75763 -3.62111,6.28848 -3.62111,10.1287c0,8.83989 7.16483,16.0047 15.992,16.0047c8.84006,0 16.0049,-7.16483 16.0049,-16.0047c0,-3.8402 -1.35309,-7.37105 -3.62105,-10.1287c-2.92522,3.5823 -7.38392,5.86329 -12.3838,5.86329c-4.98701,0 -9.44571,-2.28099 -12.3709,-5.86329ZM462.596,575.867c-2.25516,2.75763 -3.62111,6.28848 -3.62111,10.1287c0,8.84012 7.16483,16.005 16.0049,16.005c8.82721,0 15.992,-7.16483 15.992,-16.005c0,-3.8402 -1.35309,-7.37105 -3.60819,-10.1287c-2.93808,3.58253 -7.39678,5.86329 -12.3838,5.86329c-4.99993,0 -9.45857,-2.28076 -12.3838,-5.86329ZM415.303,575.867c-2.2551,2.75763 -3.62105,6.28848 -3.62105,10.1287c0,8.84012 7.16483,16.005 16.0049,16.005c8.84006,0 15.992,-7.16483 15.992,-16.005c0,-3.8402 -1.35304,-7.37105 -3.60819,-10.1287c-2.93808,3.58253 -7.39678,5.86329 -12.3838,5.86329c-4.99993,0 -9.44577,-2.28076 -12.3838,-5.86329ZM439.774,537.723c-2.26802,2.75763 -3.62111,6.28848 -3.62111,10.1287c0,8.83989 7.16483,16.0047 15.992,16.0047c8.84006,0 16.0049,-7.16483 16.0049,-16.0047c0,-3.8402 -1.35309,-7.37105 -3.62105,-10.1287c-2.92522,3.56932 -7.38392,5.86329 -12.3838,5.86329c-4.98701,0 -9.44571,-2.29397 -12.3709,-5.86329Z" style="fill:#736663;fill-rule:nonzero;"/><path d="M602.091,325.033l-0.0773349,-0.0257193l-9.63901,-71.1714l-78.6972,-25.631l62.0995,-97.3695l26.314,194.198Z" style="fill:#554c4b;fill-rule:nonzero;"/><path d="M405.56,513.871l-5.55401,-1.62362l0,-52.9114l0,0.0127417l20.5409,-43.5303c17.1389,17.7576 41.3009,28.8268 68.0917,28.8268c51.9579,0 94.0964,-41.6615 94.0964,-93.0524c0,-51.4039 -42.1385,-93.0656 -94.0964,-93.0656c-40.8628,0 -75.6173,25.7469 -88.6326,61.7129l0,-129.057l113.671,37.0226l78.6972,25.631l9.63901,71.1714l16.675,123.194l-31.9582,9.84506l-76.1843,23.4791l-104.985,32.3447Z" style="fill:#554c4b;fill-rule:nonzero;"/><path d="M488.639,444.645c-26.7908,0 -50.9528,-11.0692 -68.0917,-28.8268l4.60045,-9.75493c-1.57212,-28.93 -13.3116,-43.7749 -25.0769,-43.7749c-0.0257783,0 -0.0515566,0 -0.0644162,0l0,-42.0355l0,-0.0129776c13.0153,-35.966 47.7698,-61.7129 88.6326,-61.7129c51.9579,0 94.0964,41.6617 94.0964,93.0656c0,51.3909 -42.1385,93.0524 -94.0964,93.0524ZM488.639,328.062c-12.9895,0 -23.5306,10.5282 -23.5306,23.5306c0,12.9894 10.5411,23.5176 23.5306,23.5176c12.9895,0 23.5176,-10.5282 23.5176,-23.5176c0,-2.55164 -0.399475,-5.0129 -1.15979,-7.31962c0.747452,-1.49479 1.15979,-3.18282 1.15979,-4.97421c0,-6.19835 -5.03856,-11.2367 -11.2369,-11.2367c-1.79121,0 -3.46644,0.412217 -4.97415,1.15973c-2.30666,-0.760253 -4.75506,-1.15973 -7.30658,-1.15973Z" style="fill:#d7d0ce;fill-rule:nonzero;"/><path d="M400.006,459.348l0,-0.0127417l0,-97.0474c0.0128596,0 0.0386379,0 0.0644162,0c11.7653,0 23.5048,14.845 25.0769,43.7749l-4.60045,9.75493l-20.5409,43.5303Z" style="fill:#cf7b43;fill-rule:nonzero;"/><path d="M488.639,375.11c-12.9895,0 -23.5306,-10.5282 -23.5306,-23.5176c0,-13.0024 10.5411,-23.5306 23.5306,-23.5306c2.55152,0 4.99993,0.399475 7.30658,1.15973c-3.71131,1.82985 -6.26277,5.65706 -6.26277,10.077c0,6.21133 5.02565,11.237 11.2369,11.237c4.42,0 8.24728,-2.5514 10.0771,-6.26277c0.760312,2.30671 1.15979,4.76798 1.15979,7.31962c0,12.9894 -10.5282,23.5176 -23.5176,23.5176Z" style="fill:#373639;fill-rule:nonzero;"/><path d="M500.92,350.536c-6.21127,0 -11.2369,-5.02564 -11.2369,-11.237c0,-4.41994 2.55146,-8.24716 6.26277,-10.077c1.50771,-0.747511 3.18294,-1.15973 4.97415,-1.15973c6.19835,0 11.2369,5.03839 11.2369,11.2367c0,1.79138 -0.412335,3.47942 -1.15979,4.97421c-1.82985,3.71136 -5.65712,6.26277 -10.0771,6.26277Z" style="fill:#d7d0ce;fill-rule:nonzero;"/><path d="M427.686,602.001c-8.84006,0 -16.0049,-7.16483 -16.0049,-16.005c0,-3.8402 1.36595,-7.37105 3.62105,-10.1287c2.93808,3.58253 7.38392,5.86329 12.3838,5.86329c4.98701,0 9.44571,-2.28076 12.3838,-5.86329c2.25516,2.75763 3.60819,6.28848 3.60819,10.1287c0,8.84012 -7.15191,16.005 -15.992,16.005Z" style="fill:#ac9f9c;fill-rule:nonzero;"/><path d="M474.979,602.001c-8.84006,0 -16.0049,-7.16483 -16.0049,-16.005c0,-3.8402 1.36595,-7.37105 3.62111,-10.1287c2.92522,3.58253 7.38386,5.86329 12.3838,5.86329c4.98707,0 9.44577,-2.28076 12.3838,-5.86329c2.2551,2.75763 3.60819,6.28848 3.60819,10.1287c0,8.84012 -7.16483,16.005 -15.992,16.005Z" style="fill:#ac9f9c;fill-rule:nonzero;"/><path d="M404.865,563.857c-1.70101,0 -3.33761,-0.270407 -4.85817,-0.760253l0,-20.2574c1.52056,0.48961 3.15716,0.747511 4.85817,0.747511c4.98701,0 9.44571,-2.29397 12.3709,-5.86329c2.26802,2.75763 3.62105,6.28848 3.62105,10.1287c0,8.83989 -7.15191,16.0047 -15.992,16.0047Z" style="fill:#ac9f9c;fill-rule:nonzero;"/><path d="M452.145,563.857c-8.82721,0 -15.992,-7.16483 -15.992,-16.0047c0,-3.8402 1.35309,-7.37105 3.62111,-10.1287c2.92522,3.56932 7.38392,5.86329 12.3709,5.86329c4.99993,0 9.45863,-2.29397 12.3838,-5.86329c2.26796,2.75763 3.62105,6.28848 3.62105,10.1287c0,8.83989 -7.16483,16.0047 -16.0049,16.0047Z" style="fill:#ac9f9c;fill-rule:nonzero;"/><path d="M404.865,644.242c-1.70101,0 -3.33761,-0.270642 -4.85817,-0.760253l0,-20.2574c1.52056,0.48961 3.15716,0.747511 4.85817,0.747511c4.98701,0 9.44571,-2.28099 12.3709,-5.86329c2.26802,2.75763 3.62105,6.28848 3.62105,10.1287c0,8.83989 -7.15191,16.0047 -15.992,16.0047Z" style="fill:#ac9f9c;fill-rule:nonzero;"/><path d="M452.145,644.242c-8.82721,0 -15.992,-7.16483 -15.992,-16.0047c0,-3.8402 1.35309,-7.37105 3.62111,-10.1287c2.92522,3.5823 7.38392,5.86329 12.3709,5.86329c4.99993,0 9.45863,-2.28099 12.3838,-5.86329c2.26796,2.75763 3.62105,6.28848 3.62105,10.1287c0,8.83989 -7.16483,16.0047 -16.0049,16.0047Z" style="fill:#ac9f9c;fill-rule:nonzero;"/><path d="M499.438,644.242c-8.84006,0 -16.0049,-7.16483 -16.0049,-16.0047c0,-3.8402 1.36595,-7.37105 3.62105,-10.1287c2.93808,3.5823 7.39678,5.86329 12.3838,5.86329c4.98701,0 9.44571,-2.28099 12.3838,-5.86329c2.25516,2.75763 3.60819,6.28848 3.60819,10.1287c0,8.83989 -7.15191,16.0047 -15.992,16.0047Z" style="fill:#ac9f9c;fill-rule:nonzero;"/><path d="M427.686,685.066c-8.84006,0 -16.0049,-7.16483 -16.0049,-16.0047c0,-3.8402 1.36595,-7.37105 3.62105,-10.1287c2.93808,3.5823 7.38392,5.87603 12.3838,5.87603c4.98701,0 9.44571,-2.29374 12.3838,-5.87603c2.25516,2.75763 3.60819,6.28848 3.60819,10.1287c0,8.83989 -7.15191,16.0047 -15.992,16.0047Z" style="fill:#ac9f9c;fill-rule:nonzero;"/><path d="M474.979,685.066c-8.84006,0 -16.0049,-7.16483 -16.0049,-16.0047c0,-3.8402 1.36595,-7.37105 3.62111,-10.1287c2.92522,3.5823 7.38386,5.87603 12.3838,5.87603c4.98707,0 9.44577,-2.29374 12.3838,-5.87603c2.2551,2.75763 3.60819,6.28848 3.60819,10.1287c0,8.83989 -7.16483,16.0047 -15.992,16.0047Z" style="fill:#ac9f9c;fill-rule:nonzero;"/><path d="M522.26,685.066c-8.84006,0 -15.992,-7.16483 -15.992,-16.0047c0,-3.8402 1.35309,-7.37105 3.60819,-10.1287c2.93808,3.5823 7.39678,5.87603 12.3838,5.87603c4.99993,0 9.44571,-2.29374 12.3838,-5.87603c2.25516,2.75763 3.62111,6.28848 3.62111,10.1287c0,8.83989 -7.16483,16.0047 -16.0049,16.0047Z" style="fill:#ac9f9c;fill-rule:nonzero;"/><path d="M404.865,729.151c-1.70101,0 -3.33761,-0.257901 -4.85817,-0.747511l0,-20.2703c1.52056,0.489846 3.15716,0.747511 4.85817,0.747511c4.98701,0 9.44571,-2.28099 12.3709,-5.86329c2.26802,2.75763 3.62105,6.28848 3.62105,10.1287c0,8.84012 -7.15191,16.005 -15.992,16.005Z" style="fill:#ac9f9c;fill-rule:nonzero;"/><path d="M452.145,729.151c-8.82721,0 -15.992,-7.16483 -15.992,-16.005c0,-3.8402 1.35309,-7.37105 3.62111,-10.1287c2.92522,3.5823 7.38392,5.86329 12.3709,5.86329c4.99993,0 9.45863,-2.28099 12.3838,-5.86329c2.26796,2.75763 3.62105,6.28848 3.62105,10.1287c0,8.84012 -7.16483,16.005 -16.0049,16.005Z" style="fill:#ac9f9c;fill-rule:nonzero;"/><path d="M499.438,729.151c-8.84006,0 -16.0049,-7.16483 -16.0049,-16.005c0,-3.8402 1.36595,-7.37105 3.62105,-10.1287c2.93808,3.5823 7.39678,5.86329 12.3838,5.86329c4.98701,0 9.44571,-2.28099 12.3838,-5.86329c2.25516,2.75763 3.60819,6.28848 3.60819,10.1287c0,8.84012 -7.15191,16.005 -15.992,16.005Z" style="fill:#ac9f9c;fill-rule:nonzero;"/><path d="M427.686,773.982c-8.84006,0 -16.0049,-7.16483 -16.0049,-16.0047c0,-3.8402 1.36595,-7.37105 3.62105,-10.1287c2.93808,3.5823 7.38392,5.87603 12.3838,5.87603c4.98701,0 9.44571,-2.29374 12.3838,-5.87603c2.25516,2.75763 3.60819,6.28848 3.60819,10.1287c0,8.83989 -7.15191,16.0047 -15.992,16.0047Z" style="fill:#ac9f9c;fill-rule:nonzero;"/><path d="M474.979,773.982c-8.84006,0 -16.0049,-7.16483 -16.0049,-16.0047c0,-3.8402 1.36595,-7.37105 3.62111,-10.1287c2.92522,3.5823 7.38386,5.87603 12.3838,5.87603c4.98707,0 9.44577,-2.29374 12.3838,-5.87603c2.2551,2.75763 3.60819,6.28848 3.60819,10.1287c0,8.83989 -7.16483,16.0047 -15.992,16.0047Z" style="fill:#ac9f9c;fill-rule:nonzero;"/></g></g><defs><radialGradient id="tag2" cx="0" cy="0" r="1" gradientUnits="userSpaceOnUse" gradientTransform="matrix(2186.65,1.08601e-19,1.08601e-19,2186.65,1336.24,1351.28)"><stop offset="0%" style="stop-color:#d7d0ce;stop-opacity:1"/><stop offset="100%" style="stop-color:#d8c7b4;stop-opacity:1"/></radialGradient></defs></svg>