<?xml version="1.0" standalone="no"?><!DOCTYPE svg PUBLIC "-//W3C//DTD SVG 1.1//EN" "http://www.w3.org/Graphics/SVG/1.1/DTD/svg11.dtd"><svg width="100%" height="100%" viewBox="0 0 800 800" version="1.1" xmlns="http://www.w3.org/2000/svg" xmlns:xlink="http://www.w3.org/1999/xlink" xml:space="preserve" style="fill-rule:evenodd;clip-rule:evenodd;stroke-linejoin:round;stroke-miterlimit:1.41421;"><g id="Layer1"><path d="M400.006,800c220.306,0 399.994,-179.688 399.994,-400.006c0,-220.306 -179.688,-399.994 -399.994,-399.994c-220.319,0 -400.006,179.688 -400.006,399.994c0,220.319 179.688,400.006 400.006,400.006Z" style="fill:#f1b29e;"/><path d="M550.893,351.579l75.4498,224.21l40.9786,121.751c-70.8364,63.6718 -164.507,102.434 -267.238,102.46l-0.167529,0c-102.73,-0.0257193 -196.402,-38.788 -267.225,-102.46l40.9659,-121.751l75.4498,-224.197l150.9,-0.0129776l150.887,0Z" style="fill:#845f4e;"/><path d="M400.006,495.817c91.2101,0 167.407,110.694 185.912,258.411c-55.5018,29.1876 -118.684,45.7339 -185.745,45.7726l-0.167529,0l-0.180271,0c-67.0608,-0.0386969 -130.243,-16.5849 -185.745,-45.7726c18.5049,-147.717 94.715,-258.411 185.925,-258.411Z" style="fill:#e5cab7;"/><path d="M511.061,189.172l55.5275,96.184l55.5275,96.171l-55.5275,96.184l-55.5275,96.184l-111.055,0l-111.068,0l-55.5402,-96.184l-55.5148,-96.184l55.5148,-96.171l55.5402,-96.184l222.123,0Z" style="fill:#845f4e;"/><path d="M400.006,283.359c48.3884,0 88.027,122.33 91.429,277.392l-91.429,0l-91.4545,0c3.41477,-155.062 43.0534,-277.392 91.4545,-277.392Z" style="fill:#e5cab7;"/><path d="M356.064,500.314c43.4529,-22.6799 45.0508,-17.693 87.8722,0l-45.9399,60.4373l-41.9324,-60.4373Z" style="fill:#ed8c45;"/><path d="M311.374,328.062c12.9894,0 23.5176,10.5282 23.5176,23.5306c0,12.9894 -10.5282,23.5176 -23.5176,23.5176c-12.9894,0 -23.5306,-10.5282 -23.5306,-23.5176c0,-13.0024 10.5411,-23.5306 23.5306,-23.5306Z" style="fill:#373639;"/><path d="M321.503,332.443c4.63915,0 8.38897,3.75006 8.38897,8.37623c0,4.62617 -3.74983,8.38897 -8.38897,8.38897c-4.63915,0 -8.38897,-3.7628 -8.38897,-8.38897c0,-4.62617 3.74983,-8.37623 8.38897,-8.37623Z" style="fill:#fff;"/><path d="M488.626,328.062c12.9897,0 23.5306,10.5282 23.5306,23.5306c0,12.9894 -10.5409,23.5176 -23.5306,23.5176c-12.9894,0 -23.5176,-10.5282 -23.5176,-23.5176c0,-13.0024 10.5282,-23.5306 23.5176,-23.5306Z" style="fill:#373639;"/><path d="M498.755,332.443c4.63915,0 8.38921,3.75006 8.38921,8.37623c0,4.62617 -3.75006,8.38897 -8.38921,8.38897c-4.62617,0 -8.376,-3.7628 -8.376,-8.38897c0,-4.62617 3.74983,-8.37623 8.376,-8.37623Z" style="fill:#fff;"/><path d="M288.939,125.758c35.0252,0 63.4139,28.3887 63.4139,63.4139c0,35.0252 -28.3887,63.4139 -63.4139,63.4139c-35.0252,0 -63.4139,-28.3887 -63.4139,-63.4139c0,-35.0252 28.3887,-63.4139 63.4139,-63.4139Z" style="fill:#845f4e;"/><path d="M511.061,125.758c35.0252,0 63.4269,28.3887 63.4269,63.4139c0,35.0252 -28.4017,63.4139 -63.4269,63.4139c-35.0252,0 -63.4269,-28.3887 -63.4269,-63.4139c0,-35.0252 28.4017,-63.4139 63.4269,-63.4139Z" style="fill:#845f4e;"/><path d="M398.177,800c0.0129776,-0.0129776 0.0259553,-0.0129776 0.0516746,-0.0129776c0.0127417,0.0129776 0.0514386,0.0129776 0.0644162,0.0129776l0.79895,0c-0.309339,0 -0.618679,0 -0.915041,0ZM398.177,0c0.0644162,0 0.154788,0 0.219204,0c-0.0644162,0 -0.154788,0 -0.219204,0Z" style="fill:url(#tag1);"/><path d="M666.896,696.29l-40.5534,-120.501l-42.8472,-127.343l38.6205,-66.919l-55.5275,-96.171l-23.8139,-41.2493c18.9558,-10.9663 31.7133,-31.4686 31.7133,-54.9348c0,-35.0252 -28.4017,-63.4139 -63.4269,-63.4139c-35.0252,0 -63.4269,28.3887 -63.4269,63.4139l-47.6281,0l-1.82985,0l0,-189.172c0.0644162,0 0.154788,0 0.219204,0c220.821,0.116091 399.774,179.16 399.774,399.994c0,117.472 -50.6307,223.115 -131.274,296.297Z" style="fill:#d09888;fill-rule:nonzero;"/><path d="M399.014,800c-0.115855,0 -0.231946,0 -0.3478,0c0.115855,0 0.231946,0 0.3478,0ZM398.589,800c-0.0901355,0 -0.193249,0 -0.296362,0c0.103113,0 0.206226,0 0.296362,0ZM398.228,799.987c-0.0257193,0 -0.0386969,0 -0.0516746,0l0,0.0129776c0.0129776,-0.0129776 0.0259553,-0.0129776 0.0516746,-0.0129776ZM585.815,753.351c-9.69051,-76.2745 -34.7546,-142.613 -69.3289,-188.863l50.1024,-86.7769l16.907,-29.265l42.8472,127.343l40.5534,120.501c-24.4583,22.2031 -51.6743,41.4038 -81.0812,57.0607Z" style="fill:#79574a;fill-rule:nonzero;"/><path d="M399.092,800l-0.79895,0c-0.0129776,0 -0.0516746,0 -0.0644162,-0.0129776c-0.0257193,0 -0.0386969,0 -0.0516746,0l0,-226.092l112.885,0l5.42512,-9.40713c34.5743,46.2494 59.6383,112.588 69.3289,188.863c-55.7207,29.6388 -119.251,46.4941 -186.724,46.6489Z" style="fill:#c7ab9b;fill-rule:nonzero;"/><path d="M511.061,573.895l-111.055,0l-1.82985,0l0,-13.144l93.2589,0c-3.40203,-155.062 -43.0407,-277.392 -91.429,-277.392c-0.618443,0 -1.22414,0.0257193 -1.82985,0.0644162l0,-94.2511l49.458,0c0,35.0252 28.4017,63.4139 63.4269,63.4139c11.5463,0 22.3836,-3.07971 31.7135,-8.47911l23.8139,41.2493l55.5275,96.171l-38.6205,66.919l-16.907,29.265l-50.1024,86.7769l-5.42512,9.40713ZM488.626,328.062c-12.9894,0 -23.5176,10.5282 -23.5176,23.5306c0,12.9894 10.5282,23.5176 23.5176,23.5176c12.9897,0 23.5306,-10.5282 23.5306,-23.5176c0,-13.0024 -10.5409,-23.5306 -23.5306,-23.5306Z" style="fill:#79574a;fill-rule:nonzero;"/><path d="M491.435,560.751l-91.429,0l-1.82985,0l0,-0.244923l45.7596,-60.1923c-22.7186,-9.38117 -33.8268,-15.193 -45.7466,-15.193l-0.0129776,0l0,-201.698c0.605701,-0.0386969 1.2114,-0.0644162 1.82985,-0.0644162c48.3884,0 88.027,122.33 91.429,277.392Z" style="fill:#c7ab9b;fill-rule:nonzero;"/><path d="M398.177,560.506l0,-75.3854l0.0129776,0c11.9198,0 23.028,5.81185 45.7466,15.193l-45.7596,60.1923Z" style="fill:#cf7b43;fill-rule:nonzero;"/><path d="M488.626,375.11c-12.9894,0 -23.5176,-10.5282 -23.5176,-23.5176c0,-13.0024 10.5282,-23.5306 23.5176,-23.5306c12.9897,0 23.5306,10.5282 23.5306,23.5306c0,12.9894 -10.5409,23.5176 -23.5306,23.5176ZM498.755,332.443c-4.62617,0 -8.376,3.75006 -8.376,8.37623c0,4.62617 3.74983,8.38897 8.376,8.38897c4.63915,0 8.38921,-3.7628 8.38921,-8.38897c0,-4.62617 -3.75006,-8.37623 -8.38921,-8.37623Z" style="fill:#373639;fill-rule:nonzero;"/><path d="M498.755,349.208c-4.62617,0 -8.376,-3.7628 -8.376,-8.38897c0,-4.62617 3.74983,-8.37623 8.376,-8.37623c4.63915,0 8.38921,3.75006 8.38921,8.37623c0,4.62617 -3.75006,8.38897 -8.38921,8.38897Z" style="fill:#d7d0ce;fill-rule:nonzero;"/><path d="M511.061,252.586c-35.0252,0 -63.4269,-28.3887 -63.4269,-63.4139c0,-35.0252 28.4017,-63.4139 63.4269,-63.4139c35.0252,0 63.4269,28.3887 63.4269,63.4139c0,23.4661 -12.7575,43.9684 -31.7133,54.9348c-9.32997,5.3994 -20.1672,8.47911 -31.7135,8.47911Z" style="fill:#79574a;fill-rule:nonzero;"/></g><defs><radialGradient id="tag1" cx="0" cy="0" r="1" gradientUnits="userSpaceOnUse" gradientTransform="matrix(2186.65,1.57966e-19,1.57966e-19,2186.65,-536.229,1351.28)"><stop offset="0%" style="stop-color:#d7d0ce;stop-opacity:1"/><stop offset="100%" style="stop-color:#d8c7b4;stop-opacity:1"/></radialGradient></defs></svg>