<?xml version="1.0" standalone="no"?><!DOCTYPE svg PUBLIC "-//W3C//DTD SVG 1.1//EN" "http://www.w3.org/Graphics/SVG/1.1/DTD/svg11.dtd"><svg width="100%" height="100%" viewBox="0 0 800 800" version="1.1" xmlns="http://www.w3.org/2000/svg" xmlns:xlink="http://www.w3.org/1999/xlink" xml:space="preserve" style="fill-rule:evenodd;clip-rule:evenodd;stroke-linejoin:round;stroke-miterlimit:1.41421;"><g id="Layer1"><path d="M400.006,800c220.306,0 399.994,-179.688 399.994,-400.006c0,-220.306 -179.688,-399.994 -399.994,-399.994c-220.319,0 -400.006,179.688 -400.006,399.994c0,220.319 179.688,400.006 400.006,400.006Z" style="fill:#63919e;"/><path d="M550.893,351.592l75.4498,224.197l40.9786,121.751c-70.8494,63.6846 -164.52,102.447 -267.277,102.46l-0.0901355,0c-102.743,-0.0129776 -196.44,-38.7751 -267.264,-102.46l40.9659,-121.751l75.4498,-224.197l301.786,0Z" style="fill:#ed8c45;"/><path d="M609.72,107.421c-31.3912,-17.2033 -193.27,143.09 -114.728,201.53c78.5427,58.4398 146.119,-184.314 114.728,-201.53Z" style="fill:#ed8c45;"/><path d="M611.717,120.565c-19.4327,-13.9816 -74.2514,38.5175 -58.2594,109.534c4.39422,19.523 -51.0429,83.9033 -38.1051,93.2202c47.7185,34.3035 123.027,-183.592 96.3646,-202.755Z" style="fill:#ad6239;"/><path d="M193.064,107.421c31.3912,-17.2033 193.27,143.09 114.727,201.53c-78.5425,58.4398 -146.119,-184.314 -114.727,-201.53Z" style="fill:#ed8c45;"/><path d="M191.067,120.565c19.4197,-13.9816 74.2514,38.5175 58.2594,109.534c-4.39422,19.523 51.0429,83.9033 38.0922,93.2202c-47.7183,34.3035 -123.027,-183.592 -96.3516,-202.755Z" style="fill:#ad6239;"/><path d="M529.656,189.172l129.676,223.089l-259.326,161.634l-259.339,-161.621l129.663,-223.102l259.326,0Z" style="fill:#ed8c45;"/><path d="M395.986,573.895l263.346,-161.634c-129.676,-223.089 -259.326,-223.089 -261.336,98.4392c2.01012,-321.528 -99.4959,-321.528 -261.336,-98.4392l259.326,161.634Z" style="fill:#ad6239;"/><path d="M325.832,306.297c12.9894,0 23.5306,10.5283 23.5306,23.5177c0,12.9895 -10.5411,23.5306 -23.5306,23.5306c-12.9894,0 -23.5176,-10.541 -23.5176,-23.5306c0,-12.9894 10.5282,-23.5177 23.5176,-23.5177Z" style="fill:#373639;"/><path d="M335.961,310.665c4.63915,0 8.38897,3.74994 8.38897,8.38909c0,4.62617 -3.74983,8.37611 -8.38897,8.37611c-4.62617,0 -8.37623,-3.74994 -8.37623,-8.37611c0,-4.63915 3.75006,-8.38909 8.37623,-8.38909Z" style="fill:#fff;"/><path d="M474.168,306.297c12.9894,0 23.5176,10.5283 23.5176,23.5177c0,12.9895 -10.5282,23.5306 -23.5176,23.5306c-12.9894,0 -23.5306,-10.541 -23.5306,-23.5306c0,-12.9894 10.5411,-23.5177 23.5306,-23.5177Z" style="fill:#373639;"/><path d="M484.296,310.665c4.62617,0 8.38921,3.74994 8.38921,8.38909c0,4.62617 -3.76304,8.37611 -8.38921,8.37611c-4.62617,0 -8.38897,-3.74994 -8.38897,-8.37611c0,-4.63915 3.7628,-8.38909 8.38897,-8.38909Z" style="fill:#fff;"/><path d="M354.054,464.748c28.5048,-16.5461 60.7207,-17.7447 87.8725,0l-45.9401,45.9528l-41.9324,-45.9528Z" style="fill:#494242;"/><path d="M395.986,573.895l263.346,-161.634c-118.993,-54.8574 -203.811,-15.7342 -261.336,98.4392c-57.5249,-114.173 -142.343,-153.297 -261.336,-98.4392l259.326,161.634Z" style="fill:#fff;"/><path d="M398.177,800c0.309339,0 0.605701,0 0.915041,0c-0.309339,0 -0.605701,0 -0.915041,0ZM398.177,0c0.309339,0 0.605701,0 0.915041,0c-0.296362,0 -0.618679,0 -0.915041,0Z" style="fill:url(#tag1);"/><path d="M666.896,696.29l-40.5534,-120.501l-39.7675,-118.181l72.7566,-45.3472l-81.5708,-140.346c5.88901,-11.4689 11.4172,-23.9816 16.3785,-36.7262c6.48197,-15.9791 11.804,-32.6928 15.7473,-48.5946c4.23967,-16.4688 6.86847,-31.5588 7.31938,-43.2468c1.35321,-18.6982 -0.876344,-32.3061 -7.48691,-35.9273c-1.58516,-0.863366 -3.50514,-1.2757 -5.70874,-1.2757c-21.082,0 -68.3107,38.1953 -99.7276,83.027l-106.107,0l0,-189.172c0.296362,0 0.618679,0 0.915041,0c220.486,0.502588 399.079,179.391 399.079,400.006c0,117.459 -50.6434,223.102 -131.274,296.284Z" style="fill:#5c818a;fill-rule:nonzero;"/><path d="M399.092,800c-0.309339,0 -0.605701,0 -0.915041,0l0,-227.239l1.82985,1.13389l186.569,-116.287l39.7675,118.181l40.5534,120.501c-70.7977,64.2516 -164.727,103.478 -267.805,103.71Z" style="fill:#cf7b43;fill-rule:nonzero;"/><path d="M594.14,235.19c6.35314,-16.34 11.7653,-33.0794 15.7473,-48.5946c-3.94331,15.9018 -9.26532,32.6155 -15.7473,48.5946ZM553.458,230.112l-23.8012,-40.94l-25.3732,0c31.417,-44.8317 78.6456,-83.027 99.7276,-83.027c2.2036,0 4.12358,0.412335 5.70874,1.2757c6.61057,3.62111 8.84012,17.2291 7.48691,35.9273c0.45115,-11.4946 -1.19842,-19.7032 -5.48954,-22.7832c-2.12621,-1.53348 -4.67785,-2.2679 -7.49989,-2.2679c-23.0797,0 -65.0118,48.5429 -50.7595,111.802l0,0.0128596Z" style="fill:#cf7b43;fill-rule:nonzero;"/><path d="M577.761,271.916l-24.3038,-41.8035l0,-0.0128596c-14.2523,-63.2593 27.6799,-111.802 50.7595,-111.802c2.82204,0 5.37368,0.734416 7.49989,2.2679c4.29111,3.07994 5.94069,11.2885 5.48954,22.7832c-0.450914,11.688 -3.07971,26.7779 -7.31938,43.2468c-3.98201,15.5152 -9.39415,32.2546 -15.7473,48.5946c-4.96123,12.7446 -10.4895,25.2573 -16.3785,36.7262Z" style="fill:#9c593a;fill-rule:nonzero;"/><path d="M400.006,573.895l-1.82985,-1.13389l0,-0.206226l261.156,-160.294l-72.7566,45.3472l-186.569,116.287ZM398.177,451.887l0,-262.715l131.48,0l23.8012,40.94l24.3038,41.8035l81.5708,140.346c-58.9295,-101.364 -117.859,-156.686 -164.791,-156.686c-49.6385,0 -85.8621,61.7903 -94.5604,196.311l-1.80413,0Z" style="fill:#cf7b43;fill-rule:nonzero;"/><path d="M398.177,510.34l0,-1.82996l1.92022,-1.91998c-0.644398,1.237 -1.2888,2.48699 -1.92022,3.74994ZM430.251,458.395c-9.75493,-4.29123 -19.961,-6.41744 -30.2702,-6.50769c8.69831,-134.521 44.9219,-196.311 94.5604,-196.311c46.9323,0 105.862,55.3213 164.791,156.686c-35.8112,-16.5074 -68.5299,-24.5099 -98.349,-24.5099c-52.1382,0 -95.3851,24.4713 -130.732,70.6432ZM474.168,306.297c-12.9894,0 -23.5306,10.5283 -23.5306,23.5177c0,12.9895 10.5411,23.5306 23.5306,23.5306c12.9894,0 23.5176,-10.541 23.5176,-23.5306c0,-12.9894 -10.5282,-23.5177 -23.5176,-23.5177Z" style="fill:#9c593a;fill-rule:nonzero;"/><path d="M474.168,353.345c-12.9894,0 -23.5306,-10.541 -23.5306,-23.5306c0,-12.9894 10.5411,-23.5177 23.5306,-23.5177c12.9894,0 23.5176,10.5283 23.5176,23.5177c0,12.9895 -10.5282,23.5306 -23.5176,23.5306ZM484.296,310.665c-4.62617,0 -8.38897,3.74994 -8.38897,8.38909c0,4.62617 3.7628,8.37611 8.38897,8.37611c4.62617,0 8.38921,-3.74994 8.38921,-8.37611c0,-4.63915 -3.76304,-8.38909 -8.38921,-8.38909Z" style="fill:#373639;fill-rule:nonzero;"/><path d="M484.296,327.43c-4.62617,0 -8.38897,-3.74994 -8.38897,-8.37611c0,-4.63915 3.7628,-8.38909 8.38897,-8.38909c4.62617,0 8.38921,3.74994 8.38921,8.38909c0,4.62617 -3.76304,8.37611 -8.38921,8.37611Z" style="fill:#d7d0ce;fill-rule:nonzero;"/><path d="M398.177,508.51l0,-56.6228l1.80413,0c10.3092,0.0902535 20.5153,2.21646 30.2702,6.50769c-10.7731,14.0719 -20.8244,30.167 -30.1541,48.1951l-1.92022,1.91998Z" style="fill:#464141;fill-rule:nonzero;"/><path d="M398.177,572.555l0,-62.2154c0.631421,-1.26296 1.27582,-2.51294 1.92022,-3.74994c9.32973,-18.0282 19.381,-34.1233 30.1541,-48.1951c35.3473,-46.1719 78.5942,-70.6432 130.732,-70.6432c29.8191,0 62.5378,8.00248 98.349,24.5099l-261.156,160.294Z" style="fill:#d7d0ce;fill-rule:nonzero;"/></g><defs><radialGradient id="tag1" cx="0" cy="0" r="1" gradientUnits="userSpaceOnUse" gradientTransform="matrix(2186.65,7.89829e-20,7.89829e-20,2186.65,-536.229,441.372)"><stop offset="0%" style="stop-color:#d7d0ce;stop-opacity:1"/><stop offset="100%" style="stop-color:#d8c7b4;stop-opacity:1"/></radialGradient></defs></svg>