<?xml version="1.0" standalone="no"?><!DOCTYPE svg PUBLIC "-//W3C//DTD SVG 1.1//EN" "http://www.w3.org/Graphics/SVG/1.1/DTD/svg11.dtd"><svg width="100%" height="100%" viewBox="0 0 800 800" version="1.1" xmlns="http://www.w3.org/2000/svg" xmlns:xlink="http://www.w3.org/1999/xlink" xml:space="preserve" style="fill-rule:evenodd;clip-rule:evenodd;stroke-linejoin:round;stroke-miterlimit:1.41421;"><g id="Layer1"><path d="M399.994,800c220.319,0 400.006,-179.688 400.006,-399.994c0,-220.319 -179.688,-400.006 -400.006,-400.006c-220.306,0 -399.994,179.688 -399.994,400.006c0,220.306 179.688,399.994 399.994,399.994Z" style="fill:#63919e;"/><path d="M518.355,436.179l59.1872,192.329l34.1361,110.926c-61.4036,38.3628 -133.941,60.566 -211.685,60.566c-77.7307,0 -150.281,-22.2032 -211.672,-60.566l34.1361,-110.926l59.1743,-192.329l236.723,0Z" style="fill:#845f4e;"/><path d="M270.588,87.0089c36.0045,-3.37619 117.807,264.519 21.327,290.614c-96.4804,26.0949 -57.3187,-287.238 -21.327,-290.614Z" style="fill:#966f5c;"/><path d="M263.282,101.016c23.6723,-5.90193 63.7489,172.768 19.4584,245.834c-12.1776,20.077 0.257724,32.7056 -15.5152,36.636c-58.1176,14.4843 -36.4169,-274.377 -3.94322,-282.47Z" style="fill:#845f4e;"/><path d="M527.298,86.996c-36.0046,-3.36333 -117.807,264.532 -21.3141,290.627c96.4675,26.0949 57.3058,-287.238 21.3141,-290.627Z" style="fill:#966f5c;"/><path d="M534.605,101.016c-23.6594,-5.90193 -63.749,172.768 -19.4456,245.834c12.1648,20.077 -0.257724,32.7056 15.5023,36.636c58.1176,14.4843 36.4169,-274.377 3.94325,-282.47Z" style="fill:#845f4e;"/><path d="M492.312,243.488l92.3181,142.188l-115.398,369.53l-138.477,0l-115.398,-369.517l92.3181,-142.201l184.636,0Z" style="fill:#966f5c;"/><path d="M302.688,401.244c11.1467,0 20.1801,9.03337 20.1801,20.1801c0,11.1467 -9.03337,20.1801 -20.1801,20.1801c-11.1467,0 -20.1801,-9.03337 -20.1801,-20.1801c0,-11.1467 9.03337,-20.1801 20.1801,-20.1801Z" style="fill:#373639;"/><path d="M311.387,404.993c3.96903,0 7.17775,3.22164 7.17775,7.20353c0,3.96897 -3.20872,7.19061 -7.17775,7.19061c-3.96903,0 -7.20347,-3.22164 -7.20347,-7.19061c0,-3.98189 3.23444,-7.20353 7.20347,-7.20353Z" style="fill:#fff;"/><path d="M497.312,401.244c11.1339,0 20.1672,9.03337 20.1672,20.1801c0,11.1467 -9.03331,20.1801 -20.1672,20.1801c-11.1467,0 -20.1801,-9.03337 -20.1801,-20.1801c0,-11.1467 9.03337,-20.1801 20.1801,-20.1801Z" style="fill:#373639;"/><path d="M505.997,404.993c3.96903,0 7.19061,3.22164 7.19061,7.20353c0,3.96897 -3.22158,7.19061 -7.19061,7.19061c-3.96897,0 -7.19061,-3.22164 -7.19061,-7.19061c0,-3.98189 3.22164,-7.20353 7.19061,-7.20353Z" style="fill:#fff;"/><path d="M498.768,660.621l-29.5356,94.5861l-138.477,0l-29.5356,-94.5732l45.1024,-69.5092l107.344,0l45.1024,69.4963Z" style="fill:#e5cab7;"/><path d="M332.031,672.747c5.51537,-1.01801 12.6802,12.5771 15.9791,30.3604c3.29897,17.7961 1.50776,33.0536 -4.02053,34.0845c-5.52823,1.01801 -12.6802,-12.5642 -15.9791,-30.3732c-3.31183,-17.7832 -1.50771,-33.0407 4.02053,-34.0716Z" style="fill:#966f5c;"/><path d="M467.969,672.76c-5.52829,-1.0309 -12.6802,12.5642 -15.9792,30.3475c-3.29891,17.7961 -1.50771,33.0536 4.02059,34.0845c5.51537,1.01801 12.6802,-12.5642 15.9791,-30.3732c3.29891,-17.7832 1.50771,-33.0407 -4.02053,-34.0587Z" style="fill:#966f5c;"/><path d="M435.805,333.203l35.8241,147.962l-44.7673,274.042l-53.7233,0l-44.7673,-274.042l35.8112,-147.962l0.322199,0c21.894,31.6876 33.1696,73.4524 19.2394,128.4c28.9815,-24.2522 51.5327,-79.0194 51.9064,-128.4l0.154611,0Z" style="fill:#e5cab7;"/><path d="M399.994,800c0.141751,0 0.270642,0 0.412394,0c-0.141751,0 -0.270642,0 -0.412394,0ZM400.522,800l0.32214,0c-0.103054,0 -0.219086,0 -0.32214,0ZM400.934,800l0.399475,0c-0.128832,0 -0.270584,0 -0.399475,0ZM401.424,800l0.335,0c-0.128832,0 -0.219027,0 -0.335,0ZM401.862,800l0.141751,0c0.231946,0 0.463891,0 0.695837,-0.0128891c-0.283502,0.0128891 -0.554086,0.0128891 -0.837588,0.0128891ZM402.764,799.987c0.141751,0 0.270584,0 0.399475,0c-0.128891,0 -0.270642,0 -0.399475,0ZM403.189,799.987c0.141751,0 0.283502,0 0.425253,0c-0.141751,0 -0.270642,0 -0.425253,0ZM403.666,799.987c0.141751,0 0.270642,0 0.412394,0c-0.141751,0 -0.270642,0 -0.412394,0ZM404.104,799.974c76.1843,-0.760282 147.253,-22.8476 207.574,-60.5402l-0.0772759,-0.231975c108.439,-67.9757 182.252,-186.453 188.038,-322.031c-8.94312,211.582 -182.265,380.664 -395.535,382.803ZM799.639,382.816c-9.05909,-212.393 -185.087,-382.816 -399.646,-382.816c215.164,0 390.638,169.881 399.646,382.816Z" style="fill:url(#tag1);"/><path d="M399.994,800c0.141751,0 0.270642,0 0.412394,0c-0.141751,0 -0.270642,0 -0.412394,0ZM400.522,800c0.103054,0 0.193308,0 0.296362,0c-0.0901945,0 -0.206167,0 -0.296362,0ZM400.947,800c0.115973,0 0.244805,0 0.360837,0c-0.128891,0 -0.232005,0 -0.360837,0ZM401.501,800c0.0515566,0 0.128891,0 0.180448,0c-0.0644752,0 -0.115973,0 -0.180448,0ZM401.914,800c0.0257783,0 0.0644162,0 0.0901945,0c-0.0257783,0 -0.0644162,0 -0.0901945,0ZM611.601,739.202l-34.0588,-110.694l-34.1231,-110.875l41.2107,-131.957l-24.5486,-37.8216c6.32724,-27.3062 7.92514,-66.6742 6.19835,-105.991c-0.721615,-21.9584 -2.8221,-44.1745 -5.87621,-64.6639c-2.96385,-20.8631 -6.80399,-39.2907 -11.224,-52.8214c-6.55919,-22.1775 -14.291,-36.6617 -21.8811,-37.3834c-0.219086,-0.0128596 -0.451031,-0.0257193 -0.682977,-0.0257193c-19.9868,0 -53.2466,80.1147 -63.1691,156.518l-63.4526,0l0,-243.488c214.558,0 390.586,170.422 399.646,382.816c0.231946,5.69576 0.360896,11.4302 0.360896,17.1905c0,5.74732 -0.12895,11.4689 -0.360896,17.1647c-5.7859,135.578 -79.5992,254.055 -188.038,322.031Z" style="fill:#5c818a;fill-rule:nonzero;"/><path d="M399.994,800l0,-44.7931l69.2386,0l74.187,-237.573l34.1231,110.875l34.0588,110.694l0.0772759,0.231975c-60.3212,37.6927 -131.39,59.78 -207.574,60.5402c-0.0129186,0 -0.0257783,0 -0.0257783,0.0128891l-0.889144,0c-0.0129186,0 -0.0129186,0 -0.0257783,0l-0.46395,0c-0.231946,0.0128891 -0.463891,0.0128891 -0.695837,0.0128891l-0.670117,0c0,0 -0.0128596,0 -0.0257193,0c-0.116032,0 -0.244864,0 -0.360837,0l-0.0129186,0c-0.0257783,0 -0.0644162,0 -0.0901945,0c-0.0128596,0 -0.0128596,0 -0.0257783,0l-0.824728,0Z" style="fill:#79574a;fill-rule:nonzero;"/><path d="M495.263,248.024l-2.95099,-4.53598l-28.8655,0c9.92252,-76.4034 43.1823,-156.518 63.1691,-156.518c0.231946,0 0.463891,0.0128596 0.682977,0.0257193c7.59008,0.721674 15.3219,15.2059 21.8811,37.3834c-4.38142,-13.4662 -9.32979,-22.0615 -14.5745,-23.363c-0.373697,-0.103054 -0.773172,-0.141751 -1.15979,-0.141751c-15.6312,0 -37.435,75.1921 -38.1824,147.15ZM566.28,241.865c-0.979339,-22.3063 -3.02827,-44.6127 -5.87621,-64.6639c3.05411,20.4893 5.1546,42.7055 5.87621,64.6639Z" style="fill:#886556;fill-rule:nonzero;"/><path d="M560.081,347.855l-64.8185,-99.8309c0.747393,-71.9576 22.5512,-147.15 38.1824,-147.15c0.386615,0 0.78609,0.0386969 1.15979,0.141751c5.24473,1.30154 10.1931,9.8968 14.5745,23.363c4.42,13.5307 8.26014,31.9583 11.224,52.8214c2.84794,20.0512 4.89687,42.3576 5.87621,64.6639c1.72679,39.3164 0.128891,78.6844 -6.19835,105.991Z" style="fill:#79574a;fill-rule:nonzero;"/><path d="M469.232,755.207l29.5356,-94.5861l-45.1024,-69.4963l17.9636,-109.96l-35.8241,-147.962l-0.154611,0c-0.296421,39.6514 -14.9096,82.7822 -35.6567,110.784l0,-200.499l92.3181,0l2.95099,4.53598l64.8185,99.8309l24.5486,37.8216l-41.2107,131.957l-74.187,237.573ZM497.312,401.244c-11.1467,0 -20.1801,9.03337 -20.1801,20.1801c0,11.1467 9.03337,20.1801 20.1801,20.1801c11.1339,0 20.1672,-9.03337 20.1672,-20.1801c0,-11.1467 -9.03331,-20.1801 -20.1672,-20.1801Z" style="fill:#886556;fill-rule:nonzero;"/><path d="M497.312,441.604c-11.1467,0 -20.1801,-9.03337 -20.1801,-20.1801c0,-11.1467 9.03337,-20.1801 20.1801,-20.1801c11.1339,0 20.1672,9.03337 20.1672,20.1801c0,11.1467 -9.03331,20.1801 -20.1672,20.1801ZM505.997,404.993c-3.96897,0 -7.19061,3.22164 -7.19061,7.20353c0,3.96897 3.22164,7.19061 7.19061,7.19061c3.96903,0 7.19061,-3.22164 7.19061,-7.19061c0,-3.98189 -3.22158,-7.20353 -7.19061,-7.20353Z" style="fill:#373639;fill-rule:nonzero;"/><path d="M505.997,419.388c-3.96897,0 -7.19061,-3.22164 -7.19061,-7.19061c0,-3.98189 3.22164,-7.20353 7.19061,-7.20353c3.96903,0 7.19061,3.22164 7.19061,7.20353c0,3.96897 -3.22158,7.19061 -7.19061,7.19061Z" style="fill:#d7d0ce;fill-rule:nonzero;"/><path d="M469.232,755.207l-42.3705,0l26.8037,-164.082l45.1024,69.4963l-29.5356,94.5861ZM467.376,672.695c-5.4381,0 -12.2035,13.2601 -15.3864,30.4119c-3.29891,17.7961 -1.50771,33.0536 4.02059,34.0845c0.193308,0.0257783 0.386615,0.0515271 0.592783,0.0515271c5.42518,0 12.2034,-13.2601 15.3863,-30.4247c3.29891,-17.7832 1.50771,-33.0407 -4.02053,-34.0587c-0.193308,-0.0386379 -0.399475,-0.0644162 -0.592783,-0.0644162Z" style="fill:#c7ab9b;fill-rule:nonzero;"/><path d="M456.603,737.243c-0.206167,0 -0.399475,-0.0257488 -0.592783,-0.0515271c-5.52829,-1.03092 -7.3195,-16.2884 -4.02059,-34.0845c3.18294,-17.1518 9.94829,-30.4119 15.3864,-30.4119c0.193308,0 0.399475,0.0257783 0.592783,0.0644162c5.52823,1.01804 7.31944,16.2755 4.02053,34.0587c-3.18294,17.1647 -9.96115,30.4247 -15.3863,30.4247Z" style="fill:#886556;fill-rule:nonzero;"/><path d="M426.862,755.207l-26.8681,0l0,-311.219c20.7471,-28.0021 35.3603,-71.1329 35.6567,-110.784l0.154611,0l35.8241,147.962l-17.9636,109.96l-26.8037,164.082Z" style="fill:#c7ab9b;fill-rule:nonzero;"/></g><defs><radialGradient id="tag1" cx="0" cy="0" r="1" gradientUnits="userSpaceOnUse" gradientTransform="matrix(2186.65,-2.96186e-20,-2.96186e-20,2186.65,1338.43,-468.536)"><stop offset="0%" style="stop-color:#d7d0ce;stop-opacity:1"/><stop offset="100%" style="stop-color:#d8c7b4;stop-opacity:1"/></radialGradient></defs></svg>