<?xml version="1.0" encoding="UTF-8" standalone="no"?><!-- Generator: Gravit.io --><svg xmlns="http://www.w3.org/2000/svg" xmlns:xlink="http://www.w3.org/1999/xlink" style="isolation:isolate" viewBox="235.301 127.026 91.398 66.948" width="91.398pt" height="66.948pt"><defs><clipPath id="_clipPath_rHNkBZlYqKGd2SQrE9iVg7XWKEjMCu3R"><rect x="235.301" y="127.026" width="91.398" height="66.948"/></clipPath></defs><g clip-path="url(#_clipPath_rHNkBZlYqKGd2SQrE9iVg7XWKEjMCu3R)"><path d=" M 276.294 149.247 C 273.433 152.333 268.877 156.573 268.958 156.533 C 270.35 159.422 272.798 162.579 272.798 162.579 C 272.798 162.579 274.806 161.192 280.767 154.688 C 286.496 160.992 291.151 165.276 294.731 167.544 C 298.354 169.816 302.569 170.944 307.386 170.944 C 311.1 170.944 314.382 170.065 317.22 168.3 C 320.111 166.539 322.337 163.94 323.896 160.512 C 325.457 157.087 326.233 153.352 326.233 149.321 C 326.233 143.424 324.466 138.412 320.94 134.275 C 317.45 130.092 313.569 128.037 307.884 128.037 C 307.721 128.037 307.699 127.966 307.699 128.136 L 307.699 134.128 L 309.28 134.128 L 309.28 130.185 C 309.28 130.185 313.147 137.155 313.015 137.29 C 312.674 137.169 314.611 138.52 315.779 139.947 C 317.975 142.517 319.077 145.794 319.077 149.779 C 319.077 153.406 317.975 156.504 315.779 159.073 C 313.576 161.598 310.53 162.853 306.627 162.853 C 303.512 162.853 300.37 161.925 297.209 160.065 C 294.086 158.145 290.096 154.543 285.236 149.247 C 288.189 146.494 290.811 144.227 293.099 142.443 C 291.691 139.584 289.313 136.498 289.313 136.498 C 289.313 136.498 283.973 141.171 280.767 144.561 C 277.144 140.73 273.662 137.48 270.311 134.81 C 267.009 132.082 264.212 130.267 261.92 129.359 C 259.631 128.451 257.103 128 254.352 128 C 248.667 128 244.062 130.092 240.525 134.275 C 237.043 138.461 235.301 143.474 235.301 149.321 C 235.301 155.576 236.947 160.744 240.254 164.824 C 243.601 168.909 248.253 170.944 254.216 170.944 C 254.586 170.944 254.441 170.988 254.552 170.789 C 254.402 169.054 254.552 164.949 254.552 164.949 L 252.827 164.949 L 252.827 168.894 C 252.827 168.894 248.955 161.925 249.087 161.79 C 249.436 161.91 248.911 161.605 248.372 161.268 C 246.713 160.21 245.315 158.729 244.173 156.806 C 243.026 154.897 242.457 152.547 242.457 149.779 C 242.457 145.794 243.551 142.517 245.755 139.947 C 247.958 137.378 250.73 136.092 254.076 136.092 C 256.415 136.092 258.574 136.519 260.545 137.378 C 262.514 138.232 264.805 139.675 267.423 141.687 C 270.04 143.654 272.997 146.169 276.294 149.247 L 276.294 149.247 Z  M 254.843 170.966 C 254.707 170.966 254.574 170.961 254.446 170.949 C 254.518 170.947 254.478 170.922 254.552 170.789 C 254.402 169.054 254.552 164.949 254.552 164.949 L 252.827 164.949 L 252.827 168.894 C 252.827 168.894 249.087 162.161 249.083 161.805 C 249.083 161.797 249.087 161.792 249.087 161.79 C 249.436 161.91 249.776 162.021 250.107 162.115 C 251.445 162.61 252.977 162.853 254.7 162.853 C 256.644 162.853 258.557 162.521 260.437 161.856 C 263.901 160.653 266.459 158.594 267.859 157.412 L 268.604 156.786 C 268.759 156.659 268.877 156.573 268.958 156.533 C 270.35 159.422 272.798 162.579 272.798 162.579 C 272.798 162.579 267.637 168.155 260.73 170.156 C 259.436 170.487 258.093 170.715 256.688 170.841 C 256.121 170.866 255.459 170.966 254.843 170.966 L 254.843 170.966 Z  M 293.142 142.546 C 293.126 142.511 293.108 142.477 293.093 142.445 C 293.093 142.443 293.095 142.443 293.099 142.443 C 292.413 141.05 291.496 139.603 290.737 138.486 C 289.939 137.31 289.313 136.498 289.313 136.498 C 289.313 136.498 294.464 130.924 301.376 128.923 C 302.664 128.59 304.017 128.364 305.412 128.236 C 305.984 128.215 306.644 128.114 307.258 128.114 C 307.408 128.114 307.556 128.121 307.699 128.136 L 307.699 134.128 L 309.28 134.128 L 309.28 130.185 C 309.28 130.185 313.015 136.918 313.017 137.275 C 313.017 137.283 313.015 137.287 313.015 137.29 C 312.674 137.169 312.335 137.059 311.994 136.966 C 310.656 136.471 309.123 136.217 307.411 136.217 C 305.456 136.217 303.549 136.552 301.664 137.223 C 298.204 138.427 295.647 140.487 294.244 141.665 L 293.498 142.293 C 293.339 142.418 293.223 142.507 293.142 142.546 L 293.142 142.546 Z  M 239.485 192.966 L 243.396 192.966 L 245.65 183.135 L 247.888 192.966 L 251.815 192.966 L 255.954 174.849 L 252.105 174.849 L 249.855 184.756 L 247.602 174.849 L 243.682 174.849 L 241.435 184.756 L 239.15 174.849 L 235.301 174.849 L 239.485 192.966 Z  M 267.69 192.966 L 267.69 189.041 L 261.084 189.041 L 261.084 185.719 L 265.967 185.719 L 265.967 181.798 L 261.084 181.798 L 261.084 178.776 L 267.69 178.776 L 267.69 174.849 L 257.354 174.849 L 257.354 192.966 L 267.69 192.966 Z  M 269.63 188.517 C 269.956 189.366 270.422 190.123 271.016 190.802 C 271.659 191.504 272.374 192.038 273.167 192.412 C 273.958 192.782 274.806 192.966 275.71 192.966 L 275.729 192.966 C 276.634 192.966 277.485 192.788 278.283 192.434 C 279.081 192.08 279.795 191.57 280.427 190.906 C 281.046 190.249 281.521 189.495 281.846 188.662 C 282.164 187.834 282.32 186.951 282.32 186.019 L 278.593 186.019 C 278.593 186.432 278.512 186.816 278.364 187.185 C 278.209 187.554 278.01 187.875 277.748 188.147 C 277.489 188.428 277.179 188.642 276.839 188.802 C 276.494 188.957 276.124 189.041 275.725 189.041 C 275.33 189.041 274.956 188.957 274.606 188.772 C 274.261 188.603 273.948 188.36 273.692 188.059 C 273.423 187.753 273.218 187.409 273.069 187.011 C 272.923 186.612 272.85 186.189 272.85 185.733 L 272.85 182.092 C 272.85 181.634 272.923 181.206 273.069 180.807 C 273.218 180.411 273.423 180.054 273.692 179.754 C 273.948 179.458 274.261 179.22 274.606 179.035 C 274.956 178.865 275.33 178.776 275.725 178.776 C 276.132 178.776 276.501 178.865 276.839 179.035 C 277.179 179.22 277.489 179.458 277.748 179.754 C 278.01 180.054 278.209 180.411 278.364 180.814 C 278.512 181.22 278.593 181.649 278.593 182.092 L 282.32 182.092 C 282.32 181.134 282.164 180.212 281.846 179.346 C 281.521 178.476 281.046 177.699 280.427 177.005 C 279.795 176.306 279.081 175.772 278.283 175.403 C 277.485 175.034 276.634 174.849 275.729 174.849 L 275.71 174.849 C 274.806 174.849 273.958 175.034 273.167 175.42 C 272.374 175.796 271.659 176.326 271.016 177.02 C 270.416 177.699 269.951 178.476 269.626 179.331 C 269.308 180.187 269.138 181.104 269.123 182.076 L 269.123 185.819 C 269.138 186.767 269.308 187.666 269.63 188.517 L 269.63 188.517 Z  M 292.075 192.966 L 292.075 189.041 L 287.484 189.041 L 287.484 174.849 L 283.759 174.849 L 283.759 192.966 L 292.075 192.966 Z  M 293.512 174.849 L 297.245 174.849 L 297.245 192.966 L 293.512 192.966 L 293.512 174.849 Z  M 302.699 192.966 L 302.699 186.442 L 304.902 192.966 L 308.872 192.966 L 311.026 186.647 L 311.026 192.966 L 314.752 192.966 L 314.752 174.849 L 311.026 174.849 L 306.885 187.067 L 302.765 174.849 L 298.968 174.849 L 298.968 192.966 L 302.699 192.966 Z  M 321.642 192.966 L 321.76 192.966 C 322.374 192.966 322.957 192.842 323.505 192.596 C 324.051 192.349 324.525 192.009 324.924 191.58 C 325.323 191.157 325.641 190.647 325.877 190.075 C 326.114 189.495 326.233 188.871 326.233 188.213 C 326.233 187.296 326.011 186.462 325.575 185.704 C 325.131 184.955 324.555 184.383 323.83 183.974 C 324.555 183.575 325.131 183 325.575 182.256 C 326.011 181.51 326.233 180.676 326.233 179.754 C 326.233 179.094 326.114 178.476 325.877 177.894 C 325.641 177.308 325.323 176.806 324.924 176.384 C 324.525 175.957 324.051 175.624 323.505 175.369 C 322.957 175.115 322.374 174.99 321.76 174.99 L 316.474 174.99 L 316.474 192.966 L 321.642 192.966 L 321.642 192.966 Z " fill-rule="evenodd" fill="rgb(255,255,255)"/><clipPath id="_clipPath_0pVNRVbaL7KJkB0wOywrLIXYzwkRCAzI"><rect x="235.301" y="127.026" width="91.398" height="66.948" transform="matrix(1,0,0,1,0,0)" fill="rgb(255,255,255)"/></clipPath><g clip-path="url(#_clipPath_0pVNRVbaL7KJkB0wOywrLIXYzwkRCAzI)"><g><g><g><g><g><g><g><path d=" M 276.294 148.273 C 273.433 151.359 268.877 155.599 268.958 155.559 C 270.35 158.448 272.798 161.605 272.798 161.605 C 272.798 161.605 274.806 160.218 280.767 153.714 C 286.496 160.018 291.151 164.302 294.731 166.57 C 298.354 168.842 302.569 169.97 307.386 169.97 C 311.1 169.97 314.382 169.091 317.22 167.326 C 320.111 165.565 322.337 162.966 323.896 159.538 C 325.457 156.113 326.233 152.378 326.233 148.347 C 326.233 142.45 324.466 137.438 320.94 133.301 C 317.45 129.118 313.569 127.063 307.884 127.063 C 307.721 127.063 307.699 126.992 307.699 127.162 L 307.699 133.154 L 309.28 133.154 L 309.28 129.211 C 309.28 129.211 313.147 136.181 313.015 136.316 C 312.674 136.195 314.611 137.546 315.779 138.973 C 317.975 141.543 319.077 144.82 319.077 148.805 C 319.077 152.432 317.975 155.53 315.779 158.099 C 313.576 160.624 310.53 161.879 306.627 161.879 C 303.512 161.879 300.37 160.951 297.209 159.091 C 294.086 157.171 290.096 153.569 285.236 148.273 C 288.189 145.52 290.811 143.253 293.099 141.469 C 291.691 138.61 289.313 135.524 289.313 135.524 C 289.313 135.524 283.973 140.197 280.767 143.587 C 277.144 139.756 273.662 136.506 270.311 133.836 C 267.009 131.108 264.212 129.293 261.92 128.385 C 259.631 127.477 257.103 127.026 254.352 127.026 C 248.667 127.026 244.062 129.118 240.525 133.301 C 237.043 137.487 235.301 142.5 235.301 148.347 C 235.301 154.602 236.947 159.77 240.254 163.85 C 243.601 167.935 248.253 169.97 254.216 169.97 C 254.586 169.97 254.441 170.014 254.552 169.815 C 254.402 168.08 254.552 163.975 254.552 163.975 L 252.827 163.975 L 252.827 167.92 C 252.827 167.92 248.955 160.951 249.087 160.816 C 249.436 160.936 248.911 160.631 248.372 160.294 C 246.713 159.236 245.315 157.755 244.173 155.832 C 243.026 153.923 242.457 151.573 242.457 148.805 C 242.457 144.82 243.551 141.543 245.755 138.973 C 247.958 136.404 250.73 135.118 254.076 135.118 C 256.415 135.118 258.574 135.545 260.545 136.404 C 262.514 137.258 264.805 138.701 267.423 140.713 C 270.04 142.68 272.997 145.195 276.294 148.273 L 276.294 148.273 Z " fill-rule="evenodd" fill="rgb(64,205,126)"/></g><g><g><path d=" M 254.843 169.992 C 254.707 169.992 254.574 169.987 254.446 169.975 C 254.518 169.973 254.478 169.948 254.552 169.815 C 254.402 168.08 254.552 163.975 254.552 163.975 L 252.827 163.975 L 252.827 167.92 C 252.827 167.92 249.087 161.187 249.083 160.831 C 249.083 160.823 249.087 160.818 249.087 160.816 C 249.436 160.936 249.776 161.047 250.107 161.141 C 251.445 161.636 252.977 161.879 254.7 161.879 C 256.644 161.879 258.557 161.547 260.437 160.882 C 263.901 159.679 266.459 157.62 267.859 156.438 L 268.604 155.812 C 268.759 155.685 268.877 155.599 268.958 155.559 C 270.35 158.448 272.798 161.605 272.798 161.605 C 272.798 161.605 267.637 167.181 260.73 169.182 C 259.436 169.513 258.093 169.741 256.688 169.867 C 256.121 169.892 255.459 169.992 254.843 169.992 L 254.843 169.992 Z " fill-rule="evenodd" fill="rgb(81,91,96)"/></g><g><path d=" M 293.142 141.572 C 293.126 141.537 293.108 141.503 293.093 141.471 C 293.093 141.469 293.095 141.469 293.099 141.469 C 292.413 140.076 291.496 138.629 290.737 137.512 C 289.939 136.336 289.313 135.524 289.313 135.524 C 289.313 135.524 294.464 129.95 301.376 127.949 C 302.664 127.616 304.017 127.39 305.412 127.262 C 305.984 127.241 306.644 127.14 307.258 127.14 C 307.408 127.14 307.556 127.147 307.699 127.162 L 307.699 133.154 L 309.28 133.154 L 309.28 129.211 C 309.28 129.211 313.015 135.944 313.017 136.301 C 313.017 136.309 313.015 136.313 313.015 136.316 C 312.674 136.195 312.335 136.085 311.994 135.992 C 310.656 135.497 309.123 135.243 307.411 135.243 C 305.456 135.243 303.549 135.578 301.664 136.249 C 298.204 137.453 295.647 139.513 294.244 140.691 L 293.498 141.319 C 293.339 141.444 293.223 141.533 293.142 141.572 L 293.142 141.572 Z " fill-rule="evenodd" fill="rgb(81,91,96)"/></g></g><g><g><path d=" M 239.485 191.992 L 243.396 191.992 L 245.65 182.161 L 247.888 191.992 L 251.815 191.992 L 255.954 173.875 L 252.105 173.875 L 249.855 183.782 L 247.602 173.875 L 243.682 173.875 L 241.435 183.782 L 239.15 173.875 L 235.301 173.875 L 239.485 191.992 Z " fill-rule="evenodd" fill="rgb(64,205,126)"/></g><g><path d=" M 267.69 191.992 L 267.69 188.067 L 261.084 188.067 L 261.084 184.745 L 265.967 184.745 L 265.967 180.824 L 261.084 180.824 L 261.084 177.802 L 267.69 177.802 L 267.69 173.875 L 257.354 173.875 L 257.354 191.992 L 267.69 191.992 Z " fill-rule="evenodd" fill="rgb(64,205,126)"/></g></g><g><g><path d=" M 269.63 187.543 C 269.956 188.392 270.422 189.149 271.016 189.828 C 271.659 190.53 272.374 191.064 273.167 191.438 C 273.958 191.808 274.806 191.992 275.71 191.992 L 275.729 191.992 C 276.634 191.992 277.485 191.814 278.283 191.46 C 279.081 191.106 279.795 190.596 280.427 189.932 C 281.046 189.275 281.521 188.521 281.846 187.688 C 282.164 186.86 282.32 185.977 282.32 185.045 L 278.593 185.045 C 278.593 185.458 278.512 185.842 278.364 186.211 C 278.209 186.58 278.01 186.901 277.748 187.173 C 277.489 187.454 277.179 187.668 276.839 187.828 C 276.494 187.983 276.124 188.067 275.725 188.067 C 275.33 188.067 274.956 187.983 274.606 187.798 C 274.261 187.629 273.948 187.386 273.692 187.085 C 273.423 186.779 273.218 186.435 273.069 186.037 C 272.923 185.638 272.85 185.215 272.85 184.759 L 272.85 181.118 C 272.85 180.66 272.923 180.232 273.069 179.833 C 273.218 179.437 273.423 179.08 273.692 178.78 C 273.948 178.484 274.261 178.246 274.606 178.061 C 274.956 177.891 275.33 177.802 275.725 177.802 C 276.132 177.802 276.501 177.891 276.839 178.061 C 277.179 178.246 277.489 178.484 277.748 178.78 C 278.01 179.08 278.209 179.437 278.364 179.84 C 278.512 180.246 278.593 180.675 278.593 181.118 L 282.32 181.118 C 282.32 180.16 282.164 179.238 281.846 178.372 C 281.521 177.502 281.046 176.725 280.427 176.031 C 279.795 175.332 279.081 174.798 278.283 174.429 C 277.485 174.06 276.634 173.875 275.729 173.875 L 275.71 173.875 C 274.806 173.875 273.958 174.06 273.167 174.446 C 272.374 174.822 271.659 175.352 271.016 176.046 C 270.416 176.725 269.951 177.502 269.626 178.357 C 269.308 179.213 269.138 180.13 269.123 181.102 L 269.123 184.845 C 269.138 185.793 269.308 186.692 269.63 187.543 L 269.63 187.543 Z " fill-rule="evenodd" fill="rgb(81,91,96)"/></g><g><path d=" M 292.075 191.992 L 292.075 188.067 L 287.484 188.067 L 287.484 173.875 L 283.759 173.875 L 283.759 191.992 L 292.075 191.992 Z " fill-rule="evenodd" fill="rgb(81,91,96)"/></g><g><rect x="293.512" y="173.875" width="3.733" height="18.117" transform="matrix(1,0,0,1,0,0)" fill="rgb(81,91,96)"/></g><g><path d=" M 302.699 191.992 L 302.699 185.468 L 304.902 191.992 L 308.872 191.992 L 311.026 185.673 L 311.026 191.992 L 314.752 191.992 L 314.752 173.875 L 311.026 173.875 L 306.885 186.093 L 302.765 173.875 L 298.968 173.875 L 298.968 191.992 L 302.699 191.992 Z " fill-rule="evenodd" fill="rgb(81,91,96)"/></g><g><path d=" M 321.642 191.992 L 321.76 191.992 C 322.374 191.992 322.957 191.868 323.505 191.622 C 324.051 191.375 324.525 191.035 324.924 190.606 C 325.323 190.183 325.641 189.673 325.877 189.101 C 326.114 188.521 326.233 187.897 326.233 187.239 C 326.233 186.322 326.011 185.488 325.575 184.73 C 325.131 183.981 324.555 183.409 323.83 183 C 324.555 182.601 325.131 182.026 325.575 181.282 C 326.011 180.536 326.233 179.702 326.233 178.78 C 326.233 178.12 326.114 177.502 325.877 176.92 C 325.641 176.334 325.323 175.832 324.924 175.41 C 324.525 174.983 324.051 174.65 323.505 174.395 C 322.957 174.141 322.374 174.016 321.76 174.016 L 316.474 174.016 L 316.474 191.992 L 321.642 191.992 L 321.642 191.992 Z " fill-rule="evenodd" fill="rgb(81,91,96)"/></g></g></g></g></g></g></g></g></g></g></svg>