<?xml version="1.0" standalone="no"?><!DOCTYPE svg PUBLIC "-//W3C//DTD SVG 1.1//EN" "http://www.w3.org/Graphics/SVG/1.1/DTD/svg11.dtd"><svg width="100%" height="100%" viewBox="0 0 512 366" version="1.1" xmlns="http://www.w3.org/2000/svg" xmlns:xlink="http://www.w3.org/1999/xlink" xml:space="preserve" style="fill-rule:evenodd;clip-rule:evenodd;stroke-linejoin:round;stroke-miterlimit:1.41421;"><g><path d="M231.042,119.917c-16.125,17.416 -41.806,41.347 -41.348,41.125c7.848,16.305 21.639,34.125 21.639,34.125c0,0 11.32,-7.834 44.917,-44.542c32.292,35.583 58.528,59.764 78.708,72.556c20.417,12.833 44.167,19.194 71.32,19.194c20.93,0 39.43,-4.958 55.43,-14.917c16.292,-9.944 28.834,-24.611 37.625,-43.958c8.792,-19.333 13.167,-40.417 13.167,-63.167c0,-33.2774 -9.958,-61.5691 -29.833,-84.9163c-19.667,-23.6112 -41.542,-35.2084 -73.584,-35.2084c-0.916,0 -1.041,-0.402768 -1.041,0.555579l0,33.8194l8.916,0l0,-22.25c0,0 21.792,39.3334 21.042,40.0972c-1.917,-0.6805 9,6.9445 15.583,15.0001c12.375,14.4999 18.584,33.0004 18.584,55.4864c0,20.472 -6.209,37.958 -18.584,52.458c-12.416,14.25 -29.583,21.333 -51.583,21.333c-17.556,0 -35.264,-5.236 -53.083,-15.736c-17.598,-10.833 -40.084,-31.166 -67.473,-61.055c16.639,-15.542 31.417,-28.3337 44.306,-38.4031c-7.931,-16.1389 -21.333,-33.5556 -21.333,-33.5556c0,0 -30.098,26.375 -48.167,45.5139c-20.417,-21.625 -40.042,-39.9722 -58.931,-55.0417c-18.611,-15.3888 -34.375,-25.6388 -47.291,-30.7639c-12.903,-5.12498 -27.153,-7.66665 -42.653,-7.66665c-32.0417,0 -58,11.8055 -77.9306,35.4167c-19.625,23.625 -29.4444,51.9166 -29.4444,84.9163c0,35.306 9.27778,64.473 27.9167,87.5c18.8611,23.056 45.0833,34.542 78.6943,34.542c2.083,0 1.264,0.25 1.889,-0.875c-0.847,-9.792 0,-32.958 0,-32.958l-9.7222,0l0,22.264c0,0 -21.8195,-39.334 -21.0834,-40.098c1.9723,0.681 -0.9861,-1.041 -4.0277,-2.944c-9.3473,-5.972 -17.2223,-14.333 -23.6667,-25.181c-6.4583,-10.777 -9.6667,-24.041 -9.6667,-39.666c0,-22.486 6.1667,-40.9865 18.5834,-55.4864c12.4166,-14.5001 28.0416,-21.7639 46.9023,-21.7639c13.181,0 25.348,2.4166 36.459,7.2638c11.097,4.8195 24.014,12.9584 38.764,24.3195c14.75,11.0972 31.416,25.292 50,42.667Z" style="fill:#40cd7e;"/><g><path d="M110.139,242.5c-0.764,0 -1.514,-0.028 -2.236,-0.097c0.403,-0.014 0.18,-0.153 0.597,-0.903c-0.847,-9.792 0,-32.958 0,-32.958l-9.7222,0l0,22.264c0,0 -21.0834,-38 -21.0972,-40.014c0,-0.042 0.0138,-0.07 0.0138,-0.084c1.9723,0.681 3.8889,1.306 5.75,1.834c7.5417,2.791 16.1806,4.166 25.8886,4.166c10.959,0 21.736,-1.875 32.334,-5.625c19.527,-6.791 33.944,-18.416 41.833,-25.083l4.194,-3.528c0.875,-0.722 1.542,-1.208 2,-1.43c7.848,16.305 21.639,34.125 21.639,34.125c0,0 -29.083,31.472 -68.014,42.764c-7.291,1.861 -14.861,3.152 -22.777,3.861c-3.195,0.139 -6.931,0.708 -10.403,0.708Z" style="fill:#40cd7e;fill-opacity:0.501961;fill-rule:nonzero;"/><path d="M326,82.0972c-0.097,-0.1944 -0.194,-0.3889 -0.278,-0.5694c0,-0.0139 0.014,-0.0139 0.028,-0.0139c-3.861,-7.8611 -9.028,-16.0278 -13.306,-22.3334c-4.5,-6.6388 -8.027,-11.2222 -8.027,-11.2222c0,0 29.027,-31.4583 67.986,-42.75c7.264,-1.87502 14.889,-3.15278 22.75,-3.875c3.222,-0.12499 6.944,-0.694464 10.403,-0.694464c0.847,0 1.68,0.041676 2.486,0.125027l0,33.8194l8.916,0l0,-22.25c0,0 21.042,38 21.056,40.0139c0,0.0417 -0.014,0.0695 -0.014,0.0833c-1.917,-0.6805 -3.833,-1.3055 -5.75,-1.8333c-7.542,-2.7916 -16.181,-4.2222 -25.833,-4.2222c-11.014,0 -21.764,1.8889 -32.389,5.6805c-19.5,6.7917 -33.917,18.4167 -41.82,25.0695l-4.208,3.5417c-0.889,0.7083 -1.542,1.2083 -2,1.4305Z" style="fill:#40cd7e;fill-opacity:0.501961;fill-rule:nonzero;"/></g><path d="M325.722,81.5278c-3.833,-7.8611 -9,-16.0278 -13.278,-22.3473c4.278,6.3056 9.445,14.4723 13.306,22.3334c-0.014,0 -0.028,0 -0.028,0.0139ZM438,52.4305c0,-0.0138 0.014,-0.0416 0.014,-0.0833c0,0.0417 -0.014,0.0695 -0.014,0.0833ZM408.042,34.5833l0,-33.8194l0,33.8194Z" style="fill:#333;fill-rule:nonzero;"/><g><path d="M23.5833,366.667l22.0417,0l12.7083,-55.486l12.6111,55.486l22.1251,0l23.3335,-102.25l-21.6947,0l-12.6805,55.916l-12.6945,-55.916l-22.0972,0l-12.6667,55.916l-12.875,-55.916l-21.6944,0l23.5833,102.25Z" style="fill:#40cd7e;"/><path d="M182.542,366.667l0,-22.153l-37.223,0l0,-18.75l27.514,0l0,-22.125l-27.514,0l0,-17.056l37.223,0l0,-22.166l-58.25,0l0,102.25l58.25,0Z" style="fill:#40cd7e;"/></g><g><path d="M193.486,341.556c1.833,4.791 4.458,9.069 7.806,12.902c3.625,3.959 7.652,6.973 12.125,9.084c4.458,2.083 9.236,3.125 14.333,3.125l0.111,0c5.097,0 9.889,-1 14.389,-3c4.5,-2 8.528,-4.875 12.083,-8.625c3.486,-3.709 6.167,-7.959 8,-12.667c1.792,-4.667 2.667,-9.653 2.667,-14.917l-21,0c0,2.334 -0.458,4.5 -1.292,6.584c-0.875,2.083 -2,3.889 -3.472,5.43c-1.458,1.584 -3.208,2.792 -5.125,3.695c-1.944,0.875 -4.028,1.347 -6.278,1.347c-2.222,0 -4.333,-0.472 -6.305,-1.514c-1.945,-0.958 -3.709,-2.333 -5.153,-4.028c-1.514,-1.722 -2.667,-3.666 -3.514,-5.916c-0.819,-2.25 -1.236,-4.639 -1.236,-7.209l0,-20.555c0,-2.584 0.417,-5 1.236,-7.25c0.847,-2.236 2,-4.25 3.514,-5.945c1.444,-1.666 3.208,-3.014 5.153,-4.055c1.972,-0.959 4.083,-1.459 6.305,-1.459c2.292,0 4.375,0.5 6.278,1.459c1.917,1.041 3.667,2.389 5.125,4.055c1.472,1.695 2.597,3.709 3.472,5.986c0.834,2.292 1.292,4.709 1.292,7.209l21,0c0,-5.403 -0.875,-10.611 -2.667,-15.5c-1.833,-4.903 -4.514,-9.292 -8,-13.209c-3.555,-3.944 -7.583,-6.958 -12.083,-9.041c-4.5,-2.084 -9.292,-3.125 -14.389,-3.125l-0.111,0c-5.097,0 -9.875,1.041 -14.333,3.222c-4.473,2.125 -8.5,5.111 -12.125,9.028c-3.375,3.833 -6,8.222 -7.834,13.041c-1.791,4.834 -2.75,10.014 -2.833,15.5l0,21.125c0.083,5.348 1.042,10.417 2.861,15.223Z" style="fill:#fff;"/><path d="M319.986,366.667l0,-22.153l-25.875,0l0,-80.097l-21,0l0,102.25l46.875,0Z" style="fill:#fff;"/><rect x="328.083" y="264.417" width="21.0416" height="102.25" style="fill:#fff;"/><path d="M379.861,366.667l0,-36.82l12.417,36.82l22.375,0l12.139,-35.667l0,35.667l21,0l0,-102.25l-21,0l-23.334,68.958l-23.222,-68.958l-21.403,0l0,102.25l21.028,0Z" style="fill:#fff;"/><path d="M486.625,366.667l0.667,0c3.458,0 6.75,-0.695 9.833,-2.084c3.083,-1.402 5.75,-3.319 8,-5.736c2.25,-2.389 4.042,-5.264 5.375,-8.5c1.333,-3.264 2,-6.791 2,-10.5c0,-5.18 -1.25,-9.889 -3.708,-14.166c-2.5,-4.223 -5.75,-7.459 -9.834,-9.764c4.084,-2.25 7.334,-5.5 9.834,-9.695c2.458,-4.208 3.708,-8.916 3.708,-14.125c0,-3.722 -0.667,-7.208 -2,-10.5c-1.333,-3.305 -3.125,-6.139 -5.375,-8.514c-2.25,-2.416 -4.917,-4.291 -8,-5.736c-3.083,-1.43 -6.375,-2.139 -9.833,-2.139l-0.667,0l-29.125,0l0,101.459l29.125,0Z" style="fill:#fff;"/></g></g></svg>