<?xml version="1.0" encoding="UTF-8" standalone="no"?><!-- Generator: Gravit.io --><svg xmlns="http://www.w3.org/2000/svg" xmlns:xlink="http://www.w3.org/1999/xlink" style="isolation:isolate" viewBox="0 0 37.479 35.23" width="37.479pt" height="35.23pt"><defs><clipPath id="_clipPath_LYIE7fkYeWVSHRk5jfD2DF2OT5bQAPOt"><rect width="37.479" height="35.23"/></clipPath></defs><g clip-path="url(#_clipPath_LYIE7fkYeWVSHRk5jfD2DF2OT5bQAPOt)"><clipPath id="_clipPath_JIFFb9aSY4HqoMjoVTyQAMrnNQ8eQYMu"><rect x="0" y="0" width="37.479" height="35.23" transform="matrix(1,0,0,1,0,0)" fill="rgb(255,255,255)"/></clipPath><g clip-path="url(#_clipPath_JIFFb9aSY4HqoMjoVTyQAMrnNQ8eQYMu)"><g><path d=" M 4.461 0 L 33.017 0 C 35.214 0 36.979 1.765 36.979 3.961 L 36.979 24.429 C 36.979 26.625 35.226 28.336 33.017 28.336 L 24.104 28.336 C 23.844 28.335 23.597 28.45 23.43 28.649 L 18.715 34.23 L 14.049 28.652 C 13.882 28.452 13.635 28.336 13.375 28.336 L 4.461 28.336 C 2.253 28.336 0.5 26.625 0.5 24.429 L 0.5 3.961 C 0.5 1.765 2.265 0 4.461 0 Z " fill="rgb(20,192,255)"/></g></g><path d=" M 23.519 7.336 C 23.15 7.692 22.653 7.833 22.105 7.833 C 21.407 7.833 20.771 7.548 20.407 7.008 C 20.046 7.558 19.405 7.833 18.698 7.833 C 18 7.833 17.371 7.542 17.006 7.003 C 16.644 7.558 16.007 7.833 15.293 7.833 C 14.774 7.833 14.302 7.715 13.946 7.398 L 13.675 5.461 C 14.046 5.95 14.633 6.267 15.293 6.267 C 16.007 6.267 16.644 5.918 17.006 5.361 C 17.371 5.9 18 6.267 18.698 6.267 C 19.405 6.267 20.046 5.918 20.407 5.366 C 20.771 5.906 21.407 6.267 22.105 6.267 C 22.817 6.267 23.446 5.9 23.805 5.345 L 23.519 7.336 Z " fill="rgb(255,255,255)"/><path d=" M 24.033 23.699 L 27.12 4 L 25.043 4.02 L 22.235 21.621 L 15.243 21.621 L 12.434 4.02 L 10.359 4 L 13.444 23.699 L 24.033 23.699 Z " fill="rgb(255,255,255)"/></g></svg>