<?xml version="1.0" standalone="no"?><!-- Generator: Gravit.io --><svg xmlns="http://www.w3.org/2000/svg" xmlns:xlink="http://www.w3.org/1999/xlink" style="isolation:isolate" viewBox="0 0 37.479 35.23" width="37.479" height="35.23"><defs><clipPath id="_clipPath_zAXapA27P3NIIKTJE1qHuwrhOSEO4KP6"><rect width="37.479" height="35.23"/></clipPath></defs><g clip-path="url(#_clipPath_zAXapA27P3NIIKTJE1qHuwrhOSEO4KP6)"><g id="Group" filter="url(#OgGrnsJOTgUy6zhoQA9hMh9gyinmsfWL)"><path d=" M 4.461 0 L 33.017 0 C 35.214 0 36.979 1.765 36.979 3.961 L 36.979 24.429 C 36.979 26.625 35.226 28.336 33.017 28.336 L 24.104 28.336 C 23.844 28.335 23.597 28.45 23.43 28.649 L 18.715 34.23 L 14.049 28.652 C 13.882 28.452 13.635 28.336 13.375 28.336 L 4.461 28.336 C 2.253 28.336 0.5 26.625 0.5 24.429 L 0.5 3.961 C 0.5 1.765 2.265 0 4.461 0 Z " fill="rgb(255,211,42)"/><g id="Group"><path d=" M 22.41 17.342 C 22.306 16.785 21.853 15.88 20.427 14.732 C 20.497 13.514 20.462 10.939 20.462 10.174 C 21.61 9.896 22.41 9.13 22.723 8.33 C 23.176 7.216 23.558 5.268 23.593 5.198 C 23.663 4.85 23.419 4.502 23.071 4.433 C 22.723 4.363 22.375 4.607 22.306 4.955 C 22.306 4.989 21.923 6.868 21.506 7.843 C 21.331 8.26 20.705 8.991 19.557 8.991 L 17.713 8.991 C 16.565 8.991 15.938 8.295 15.764 7.843 C 15.347 6.868 14.999 4.989 14.964 4.955 C 14.895 4.607 14.546 4.363 14.199 4.433 C 13.851 4.502 13.607 4.85 13.677 5.198 C 13.677 5.268 14.094 7.251 14.546 8.33 C 14.86 9.095 15.66 9.896 16.808 10.174 C 16.773 10.974 16.704 13.758 16.843 14.871 C 16.147 15.776 15.59 16.959 15.59 17.69 C 15.59 18.386 16.217 21.448 16.391 21.935 C 16.565 22.387 17.017 22.596 17.469 22.457 C 17.922 22.317 18.13 21.83 17.991 21.378 C 17.852 20.995 17.295 18.212 17.295 17.759 C 17.295 17.481 17.748 16.402 18.444 15.637 C 18.513 15.567 18.548 15.498 18.618 15.463 C 18.722 15.567 18.861 15.637 18.966 15.741 C 20.044 16.541 20.705 17.342 20.775 17.69 C 20.949 18.559 22.028 21.621 22.132 21.97 C 22.271 22.317 22.584 22.526 22.932 22.526 C 23.037 22.526 23.106 22.526 23.211 22.491 C 23.663 22.352 23.872 21.865 23.733 21.413 C 23.245 20.09 22.515 17.898 22.41 17.342 Z " fill="rgb(255,255,255)"/><path d=" M 16.843 6.464 C 16.843 5.465 17.654 4.654 18.652 4.654 C 19.651 4.654 20.462 5.465 20.462 6.464 C 20.462 7.462 19.651 8.273 18.652 8.273 C 17.654 8.273 16.843 7.462 16.843 6.464 Z " fill="rgb(255,255,255)"/></g><g id="Group"><path d=" M 35.284 13.954 C 35.076 13.327 34.38 11.205 33.962 10.613 C 33.545 10.057 32.779 9.013 31.039 9.013 L 29.195 9.013 C 28.047 9.013 27.421 8.317 27.247 7.864 C 26.829 6.89 26.446 5.011 26.446 4.976 C 26.377 4.629 26.029 4.385 25.681 4.455 C 25.333 4.524 25.089 4.872 25.159 5.22 C 25.159 5.29 25.577 7.273 26.029 8.352 C 26.377 9.152 27.212 9.987 28.43 10.231 C 28.882 11.24 28.882 13.362 28.882 14.476 C 28.291 14.998 26.968 16.215 26.62 17.016 C 26.342 17.607 26.238 19.904 26.168 21.678 C 26.168 22.131 26.516 22.548 27.003 22.548 C 27.003 22.548 27.003 22.548 27.038 22.548 C 27.49 22.548 27.873 22.2 27.873 21.713 C 27.908 20.078 28.047 18.094 28.186 17.677 C 28.36 17.364 29.335 16.32 30.309 15.485 C 30.309 15.485 30.309 15.485 30.344 15.45 C 29.961 17.642 30.831 21.122 31.039 21.887 C 31.144 22.27 31.492 22.513 31.875 22.513 C 31.944 22.513 32.014 22.513 32.083 22.478 C 32.536 22.339 32.814 21.887 32.675 21.435 C 32.153 19.451 31.631 16.32 32.153 15.241 C 32.188 15.171 32.222 15.032 32.222 15.032 C 32.571 14.267 32.64 11.97 32.222 10.613 C 32.536 10.822 32.744 11.1 32.918 11.344 C 33.127 11.622 33.684 13.084 34.067 14.302 C 34.171 14.58 34.415 14.754 34.693 14.754 C 34.762 14.754 34.832 14.754 34.902 14.719 C 35.215 14.684 35.389 14.302 35.284 13.954 Z " fill="rgb(255,255,255)"/><path d=" M 28.256 6.464 C 28.256 5.465 29.067 4.654 30.065 4.654 C 31.064 4.654 31.875 5.465 31.875 6.464 C 31.875 7.462 31.064 8.273 30.065 8.273 C 29.067 8.273 28.256 7.462 28.256 6.464 Z " fill="rgb(255,255,255)"/></g><g id="Group"><path d=" M 11.798 4.433 C 11.45 4.363 11.102 4.607 11.032 4.955 C 11.032 4.989 10.649 6.868 10.232 7.843 C 10.058 8.26 9.431 8.991 8.283 8.991 L 7.483 8.991 L 6.996 8.991 C 5.569 8.991 4.595 9.408 3.829 10.313 C 3.342 10.905 2.473 13.236 2.229 13.932 C 2.125 14.28 2.299 14.663 2.612 14.767 C 2.681 14.802 2.751 14.802 2.82 14.802 C 3.099 14.802 3.342 14.628 3.447 14.349 C 3.934 13.027 4.56 11.427 4.804 11.113 C 4.908 10.974 5.047 10.835 5.187 10.731 C 4.839 12.088 4.908 14.245 5.221 15.01 C 5.221 15.045 5.291 15.219 5.291 15.219 C 5.639 15.845 5.917 17.133 5.778 18.316 C 5.569 19.812 4.873 21.239 4.839 21.274 C 4.63 21.691 4.804 22.213 5.221 22.422 C 5.36 22.491 5.465 22.526 5.604 22.526 C 5.917 22.526 6.196 22.352 6.37 22.074 C 6.404 22.004 7.24 20.369 7.448 18.594 C 7.587 17.516 7.483 16.437 7.24 15.602 C 7.587 15.915 8.075 16.541 8.631 17.725 C 8.771 18.072 9.118 20.125 9.362 21.83 C 9.431 22.283 9.849 22.631 10.336 22.561 C 10.789 22.491 11.137 22.074 11.067 21.587 C 10.893 20.404 10.475 17.62 10.197 17.028 C 9.71 15.95 9.153 15.115 8.597 14.523 C 8.562 13.445 8.562 11.287 9.049 10.278 C 10.267 10.035 11.137 9.234 11.45 8.399 C 11.902 7.286 12.285 5.337 12.32 5.268 C 12.354 4.85 12.146 4.502 11.798 4.433 Z " fill="rgb(255,255,255)"/><path d=" M 5.535 6.486 C 5.535 5.487 6.345 4.676 7.344 4.676 C 8.343 4.676 9.153 5.487 9.153 6.486 C 9.153 7.484 8.343 8.295 7.344 8.295 C 6.345 8.295 5.535 7.484 5.535 6.486 Z " fill="rgb(255,255,255)"/></g></g><defs><filter id="OgGrnsJOTgUy6zhoQA9hMh9gyinmsfWL" x="-200%" y="-200%" width="400%" height="400%"><feOffset xmlns="http://www.w3.org/2000/svg" in="SourceAlpha" result="offOut" dx="0" dy="1"/><feGaussianBlur xmlns="http://www.w3.org/2000/svg" in="offOut" result="blurOut" stdDeviation="0.5"/><feComponentTransfer xmlns="http://www.w3.org/2000/svg" in="blurOut" result="opacOut"><feFuncA xmlns="http://www.w3.org/2000/svg" type="table" tableValues="0 0.5"/></feComponentTransfer><feBlend xmlns="http://www.w3.org/2000/svg" in="SourceGraphic" in2="opacOut" mode="normal"/></filter></defs></g></svg>