<?xml version="1.0" encoding="UTF-8" standalone="no"?><!-- Generator: Gravit.io --><svg xmlns="http://www.w3.org/2000/svg" xmlns:xlink="http://www.w3.org/1999/xlink" style="isolation:isolate" viewBox="947 459 28 37.8" width="28pt" height="37.8pt"><defs><clipPath id="_clipPath_VMrhtJRgfryd3HRgLeufCNzMsmKQE76v"><rect x="947" y="459" width="28" height="37.8"/></clipPath></defs><g clip-path="url(#_clipPath_VMrhtJRgfryd3HRgLeufCNzMsmKQE76v)"><g><linearGradient id="_lgradient_0" x1="0.19472752397953796" y1="0.1056299931107427" x2="0.9124984740240213" y2="0.8518518518518506" gradientTransform="matrix(28,0,0,37.8,947,459)" gradientUnits="userSpaceOnUse"><stop offset="0%" stop-opacity="1" style="stop-color:rgb(176,178,244)"/><stop offset="100%" stop-opacity="1" style="stop-color:rgb(60,64,198)"/></linearGradient><path d=" M 962.4 495.4 C 962.4 496.173 961.773 496.8 961 496.8 C 960.227 496.8 959.6 496.173 959.6 495.4 C 959.6 494.627 960.227 494 961 494 C 961.773 494 962.4 494.627 962.4 495.4 Z  M 961 459 C 953.268 459 947 465.268 947 473 C 947 479.287 951.144 484.606 956.85 486.374 L 959.784 491.456 C 960.274 492.306 961.501 492.306 961.991 491.456 L 964.881 486.451 C 966.662 485.938 968.297 485.081 969.71 483.957 C 972.933 481.393 975 477.439 975 473 C 975 465.268 968.732 459 961 459 Z " fill-rule="evenodd" fill="url(#_lgradient_0)"/><circle vector-effect="non-scaling-stroke" cx="961.1076014077844" cy="473.10760140778507" r="11.307606090231047" fill="rgb(255,255,255)"/><path d=" M 954.263 479.3 L 953.879 479.3 L 954.56 477.418 L 955.868 474.304 L 955.868 469.069 L 956.931 466.454 L 958.443 465.499 L 959.703 466.552 L 960.074 467.897 L 961.35 469.39 L 959.893 470.515 L 958.768 474.598 L 955.702 476.774 L 954.263 479.3 L 954.263 479.3 Z  M 968.622 479.3 L 954.718 479.3 L 956.002 477.046 L 959.112 474.839 L 960.238 470.746 L 962.097 469.312 L 964.508 472.716 L 964.916 476.801 L 966.138 476.971 L 965.287 476.545 L 964.891 472.573 L 963.726 470.929 L 964.658 470.458 L 965.92 471.777 L 966.237 474.353 L 967.416 475.59 L 968.622 479.3 L 968.622 479.3 Z " fill="rgb(60,64,198)"/></g></g></svg>