<?xml version="1.0" standalone="no"?><!-- Generator: Gravit.io --><svg xmlns="http://www.w3.org/2000/svg" xmlns:xlink="http://www.w3.org/1999/xlink" style="isolation:isolate" viewBox="0 0 37.479 35.23" width="37.479" height="35.23"><defs><clipPath id="_clipPath_RfwXz7O7xV3qXZA3OHG61rbZdDeMaiaO"><rect width="37.479" height="35.23"/></clipPath></defs><g clip-path="url(#_clipPath_RfwXz7O7xV3qXZA3OHG61rbZdDeMaiaO)"><g id="Group"><defs><filter id="rDaOsJn9VXPKs5uFPX1wsLH3tBdEyvJ1" x="-200%" y="-200%" width="400%" height="400%"><feOffset xmlns="http://www.w3.org/2000/svg" in="SourceAlpha" result="offOut" dx="0" dy="1"/><feGaussianBlur xmlns="http://www.w3.org/2000/svg" in="offOut" result="blurOut" stdDeviation="0.5"/><feComponentTransfer xmlns="http://www.w3.org/2000/svg" in="blurOut" result="opacOut"><feFuncA xmlns="http://www.w3.org/2000/svg" type="table" tableValues="0 0.5"/></feComponentTransfer><feBlend xmlns="http://www.w3.org/2000/svg" in="SourceGraphic" in2="opacOut" mode="normal"/></filter></defs><g filter="url(#rDaOsJn9VXPKs5uFPX1wsLH3tBdEyvJ1)"><path d=" M 4.461 0 L 33.017 0 C 35.214 0 36.979 1.765 36.979 3.961 L 36.979 24.429 C 36.979 26.625 35.226 28.336 33.017 28.336 L 24.104 28.336 C 23.844 28.335 23.597 28.45 23.43 28.649 L 18.715 34.23 L 14.049 28.652 C 13.882 28.452 13.635 28.336 13.375 28.336 L 4.461 28.336 C 2.253 28.336 0.5 26.625 0.5 24.429 L 0.5 3.961 C 0.5 1.765 2.265 0 4.461 0 Z " fill="rgb(60,64,198)"/></g><path d=" M 8.38 26.416 L 7.739 26.416 L 8.875 23.279 L 11.055 18.09 L 11.055 9.366 L 12.825 5.008 L 15.346 3.416 L 17.446 5.171 L 18.063 7.413 L 20.191 9.9 L 17.762 11.775 L 15.888 18.58 L 10.777 22.207 L 8.38 26.416 Z  M 32.309 26.416 L 9.137 26.416 L 11.277 22.659 L 16.46 18.981 L 18.337 12.161 L 21.435 9.771 L 25.454 15.444 L 26.133 22.251 L 28.169 22.534 L 26.752 21.825 L 26.091 15.205 L 24.15 12.466 L 25.704 11.68 L 27.807 13.878 L 28.334 18.172 L 30.299 20.233 L 32.309 26.416 Z " fill="rgb(255,255,255)"/></g></g></svg>