<?xml version="1.0" encoding="UTF-8" standalone="no"?><!-- Generator: Gravit.io --><svg xmlns="http://www.w3.org/2000/svg" xmlns:xlink="http://www.w3.org/1999/xlink" style="isolation:isolate" viewBox="1028 416 28 37.8" width="28pt" height="37.8pt"><defs><clipPath id="_clipPath_TYWDqKl5OC9wMBD06OUooP6NJMIbYQ7e"><rect x="1028" y="416" width="28" height="37.8"/></clipPath></defs><g clip-path="url(#_clipPath_TYWDqKl5OC9wMBD06OUooP6NJMIbYQ7e)"><g><linearGradient id="_lgradient_1" x1="0.19472752397953796" y1="0.1056299931107427" x2="0.9124984740240213" y2="0.8518518518518506" gradientTransform="matrix(28,0,0,37.8,1028,416)" gradientUnits="userSpaceOnUse"><stop offset="0.8333333333333334%" stop-opacity="1" style="stop-color:rgb(155,228,255)"/><stop offset="100%" stop-opacity="1" style="stop-color:rgb(20,192,255)"/></linearGradient><path d=" M 1043.4 452.4 C 1043.4 453.173 1042.773 453.8 1042 453.8 C 1041.227 453.8 1040.6 453.173 1040.6 452.4 C 1040.6 451.627 1041.227 451 1042 451 C 1042.773 451 1043.4 451.627 1043.4 452.4 Z  M 1042 416 C 1034.268 416 1028 422.268 1028 430 C 1028 436.287 1032.144 441.606 1037.85 443.374 L 1040.784 448.456 C 1041.274 449.306 1042.501 449.306 1042.991 448.456 L 1045.881 443.451 C 1047.662 442.938 1049.297 442.081 1050.71 440.957 C 1053.933 438.393 1056 434.439 1056 430 C 1056 422.268 1049.732 416 1042 416 Z " fill-rule="evenodd" fill="url(#_lgradient_1)"/><circle vector-effect="non-scaling-stroke" cx="1042.1076014077848" cy="430.1076014077845" r="11.307606090231047" fill="rgb(255,255,255)"/><path d=" M 1045.792 425.087 C 1045.507 425.361 1045.124 425.47 1044.702 425.47 C 1044.164 425.47 1043.674 425.25 1043.393 424.834 C 1043.115 425.258 1042.621 425.47 1042.076 425.47 C 1041.538 425.47 1041.053 425.246 1040.771 424.83 C 1040.492 425.258 1040.001 425.47 1039.451 425.47 C 1039.051 425.47 1038.687 425.379 1038.413 425.135 L 1038.204 423.641 C 1038.49 424.018 1038.942 424.263 1039.451 424.263 C 1040.001 424.263 1040.492 423.994 1040.771 423.564 C 1041.053 423.98 1041.538 424.263 1042.076 424.263 C 1042.621 424.263 1043.115 423.994 1043.393 423.568 C 1043.674 423.984 1044.164 424.263 1044.702 424.263 C 1045.251 424.263 1045.736 423.98 1046.012 423.552 L 1045.792 425.087 Z  M 1046.188 437.7 L 1048.568 422.515 L 1046.967 422.531 L 1044.802 436.098 L 1039.412 436.098 L 1037.247 422.531 L 1035.648 422.515 L 1038.026 437.7 L 1046.188 437.7 Z " fill-rule="evenodd" fill="rgb(20,192,255)"/></g></g></svg>