<?xml version="1.0" encoding="UTF-8" standalone="no"?><!-- Generator: Gravit.io --><svg xmlns="http://www.w3.org/2000/svg" xmlns:xlink="http://www.w3.org/1999/xlink" style="isolation:isolate" viewBox="1028.307 544 28 37.8" width="28pt" height="37.8pt"><defs><clipPath id="_clipPath_MDnDtqlHuGgfH4Egq6xaZ92a45RxxoTB"><rect x="1028.307" y="544" width="28" height="37.8"/></clipPath></defs><g clip-path="url(#_clipPath_MDnDtqlHuGgfH4Egq6xaZ92a45RxxoTB)"><g><linearGradient id="_lgradient_3" x1="0.19472752397953796" y1="0.1056299931107427" x2="0.9124984740240213" y2="0.8518518518518506" gradientTransform="matrix(28,0,0,37.8,1028.307,544)" gradientUnits="userSpaceOnUse"><stop offset="1.6666666666666667%" stop-opacity="1" style="stop-color:rgb(255,239,177)"/><stop offset="98.33333333333333%" stop-opacity="1" style="stop-color:rgb(255,205,3)"/></linearGradient><path d=" M 1043.707 580.4 C 1043.707 581.173 1043.081 581.8 1042.307 581.8 C 1041.534 581.8 1040.907 581.173 1040.907 580.4 C 1040.907 579.627 1041.534 579 1042.307 579 C 1043.081 579 1043.707 579.627 1043.707 580.4 Z  M 1042.307 544 C 1034.575 544 1028.307 550.268 1028.307 558 C 1028.307 564.287 1032.452 569.606 1038.157 571.374 L 1041.091 576.456 C 1041.582 577.306 1042.808 577.306 1043.299 576.456 L 1046.188 571.451 C 1047.969 570.938 1049.605 570.081 1051.018 568.957 C 1054.241 566.393 1056.307 562.439 1056.307 558 C 1056.307 550.268 1050.039 544 1042.307 544 Z " fill-rule="evenodd" fill="url(#_lgradient_3)"/><circle vector-effect="non-scaling-stroke" cx="1042.415034515576" cy="558.1076014077844" r="11.307606090231047" fill="rgb(255,255,255)"/><g><g><path d=" M 1049.356 560.941 C 1049.279 560.531 1048.945 559.864 1047.895 559.018 C 1047.947 558.121 1047.921 556.225 1047.921 555.661 C 1048.766 555.456 1049.356 554.892 1049.586 554.303 C 1049.92 553.482 1050.201 552.047 1050.227 551.996 C 1050.279 551.739 1050.099 551.483 1049.843 551.432 C 1049.586 551.381 1049.33 551.56 1049.279 551.817 C 1049.279 551.842 1048.997 553.226 1048.69 553.944 C 1048.561 554.251 1048.1 554.79 1047.254 554.79 L 1045.896 554.79 C 1045.05 554.79 1044.589 554.277 1044.46 553.944 C 1044.153 553.226 1043.897 551.842 1043.871 551.817 C 1043.82 551.56 1043.563 551.381 1043.308 551.432 C 1043.051 551.483 1042.872 551.739 1042.923 551.996 C 1042.923 552.047 1043.23 553.508 1043.563 554.303 C 1043.795 554.866 1044.384 555.456 1045.229 555.661 C 1045.204 556.25 1045.153 558.301 1045.255 559.121 C 1044.743 559.787 1044.332 560.659 1044.332 561.197 C 1044.332 561.71 1044.794 563.965 1044.922 564.324 C 1045.05 564.657 1045.383 564.811 1045.716 564.709 C 1046.05 564.605 1046.203 564.247 1046.101 563.914 C 1045.998 563.632 1045.588 561.582 1045.588 561.248 C 1045.588 561.043 1045.922 560.248 1046.434 559.685 C 1046.485 559.633 1046.511 559.583 1046.563 559.557 C 1046.639 559.633 1046.742 559.685 1046.819 559.762 C 1047.613 560.351 1048.1 560.941 1048.151 561.197 C 1048.28 561.837 1049.074 564.093 1049.151 564.35 C 1049.253 564.605 1049.484 564.759 1049.74 564.759 C 1049.818 564.759 1049.868 564.759 1049.946 564.734 C 1050.279 564.631 1050.433 564.272 1050.33 563.94 C 1049.971 562.965 1049.433 561.35 1049.356 560.941 Z " fill="rgb(255,205,3)"/><path d=" M 1045.255 552.928 C 1045.255 552.192 1045.853 551.595 1046.588 551.595 C 1047.324 551.595 1047.921 552.192 1047.921 552.928 C 1047.921 553.663 1047.324 554.261 1046.588 554.261 C 1045.853 554.261 1045.255 553.663 1045.255 552.928 Z " fill="rgb(255,205,3)"/></g><g><path d=" M 1041.539 551.432 C 1041.283 551.381 1041.026 551.56 1040.975 551.817 C 1040.975 551.842 1040.693 553.226 1040.386 553.944 C 1040.257 554.251 1039.796 554.79 1038.95 554.79 L 1038.361 554.79 L 1038.002 554.79 C 1036.951 554.79 1036.233 555.097 1035.669 555.763 C 1035.311 556.199 1034.67 557.916 1034.491 558.429 C 1034.414 558.685 1034.542 558.968 1034.773 559.044 C 1034.824 559.07 1034.875 559.07 1034.926 559.07 C 1035.132 559.07 1035.311 558.942 1035.388 558.736 C 1035.747 557.763 1036.208 556.584 1036.387 556.353 C 1036.464 556.25 1036.566 556.148 1036.67 556.071 C 1036.413 557.071 1036.464 558.66 1036.695 559.223 C 1036.695 559.249 1036.746 559.377 1036.746 559.377 C 1037.002 559.838 1037.207 560.787 1037.105 561.658 C 1036.951 562.76 1036.438 563.811 1036.413 563.837 C 1036.259 564.144 1036.387 564.529 1036.695 564.683 C 1036.797 564.734 1036.874 564.759 1036.977 564.759 C 1037.207 564.759 1037.413 564.631 1037.541 564.426 C 1037.566 564.375 1038.182 563.171 1038.335 561.863 C 1038.437 561.069 1038.361 560.274 1038.182 559.659 C 1038.437 559.89 1038.797 560.351 1039.206 561.223 C 1039.309 561.479 1039.565 562.991 1039.745 564.247 C 1039.796 564.58 1040.104 564.837 1040.462 564.785 C 1040.796 564.734 1041.052 564.426 1041.001 564.068 C 1040.872 563.196 1040.565 561.146 1040.36 560.71 C 1040.001 559.916 1039.591 559.301 1039.181 558.864 C 1039.156 558.07 1039.156 556.481 1039.514 555.738 C 1040.411 555.559 1041.052 554.969 1041.283 554.354 C 1041.616 553.534 1041.898 552.098 1041.924 552.047 C 1041.949 551.739 1041.795 551.483 1041.539 551.432 Z " fill="rgb(255,205,3)"/><path d=" M 1036.926 552.945 C 1036.926 552.209 1037.523 551.611 1038.258 551.611 C 1038.994 551.611 1039.591 552.209 1039.591 552.945 C 1039.591 553.68 1038.994 554.277 1038.258 554.277 C 1037.523 554.277 1036.926 553.68 1036.926 552.945 Z " fill="rgb(255,205,3)"/></g></g></g></g></svg>