<?xml version="1.0" encoding="UTF-8" standalone="no"?><!-- Generator: Gravit.io --><svg xmlns="http://www.w3.org/2000/svg" xmlns:xlink="http://www.w3.org/1999/xlink" style="isolation:isolate" viewBox="932.837 541.615 28 37.8" width="28pt" height="37.8pt"><defs><clipPath id="_clipPath_drsONedkrsZOYaTInI8D3lYTHs6OfMdU"><rect x="932.837" y="541.615" width="28" height="37.8"/></clipPath></defs><g clip-path="url(#_clipPath_drsONedkrsZOYaTInI8D3lYTHs6OfMdU)"><g><linearGradient id="_lgradient_2" x1="0.19472752397953796" y1="0.1056299931107427" x2="0.9124984740240213" y2="0.8518518518518506" gradientTransform="matrix(28,0,0,37.8,932.837,541.615)" gradientUnits="userSpaceOnUse"><stop offset="0.8333333333333334%" stop-opacity="1" style="stop-color:rgb(179,225,158)"/><stop offset="98.33333333333333%" stop-opacity="1" style="stop-color:rgb(87,187,40)"/></linearGradient><path d=" M 948.237 578.015 C 948.237 578.788 947.61 579.415 946.837 579.415 C 946.064 579.415 945.437 578.788 945.437 578.015 C 945.437 577.242 946.064 576.615 946.837 576.615 C 947.61 576.615 948.237 577.242 948.237 578.015 Z  M 946.837 541.615 C 939.105 541.615 932.837 547.883 932.837 555.615 C 932.837 561.902 936.981 567.221 942.687 568.989 L 945.621 574.071 C 946.111 574.921 947.338 574.921 947.828 574.071 L 950.718 569.066 C 952.499 568.553 954.134 567.696 955.547 566.572 C 958.77 564.008 960.837 560.054 960.837 555.615 C 960.837 547.883 954.569 541.615 946.837 541.615 Z " fill-rule="evenodd" fill="url(#_lgradient_2)"/><circle vector-effect="non-scaling-stroke" cx="946.9445705025324" cy="555.7226014077844" r="11.307606090231047" fill="rgb(255,255,255)"/><path d=" M 952.358 555.319 C 952.3 554.592 952.242 553.864 952.184 553.136 C 952.114 552.247 951.368 551.541 950.46 551.59 C 950.172 551.606 949.898 551.703 949.662 551.857 C 949.268 551.762 948.862 551.73 948.459 551.827 C 948.423 551.835 948.39 551.848 948.356 551.858 C 947.832 550.523 945.654 550.555 945.259 551.974 C 944.423 552.877 943.378 553.544 942.196 553.928 C 941.02 554.311 941.523 556.171 942.708 555.785 C 943.664 555.474 944.525 555.034 945.298 554.472 C 945.388 555.417 945.537 556.354 945.745 557.291 C 944.439 559.123 943.86 561.137 944.22 563.457 C 944.409 564.682 946.265 564.16 946.077 562.946 C 945.826 561.331 946.285 559.856 947.181 558.564 C 947.208 558.565 947.234 558.566 947.261 558.565 C 947.611 560.165 948.01 561.753 948.456 563.329 C 948.794 564.523 950.652 564.015 950.313 562.818 C 949.791 560.976 949.331 559.118 948.944 557.243 C 948.987 557.028 948.986 556.791 948.927 556.535 C 948.898 556.409 948.872 556.282 948.847 556.158 C 948.983 556.218 949.122 556.274 949.268 556.32 C 949.312 556.333 949.352 556.339 949.39 556.341 C 949.703 556.789 950.222 557.076 950.811 557.045 C 951.686 556.996 952.428 556.209 952.358 555.319 Z  M 948.633 554.894 C 948.544 554.223 948.493 553.552 948.477 552.863 C 948.635 552.794 948.803 552.758 948.979 552.754 C 948.924 552.931 948.899 553.119 948.915 553.314 C 948.965 553.945 949.014 554.574 949.065 555.205 C 948.906 555.119 948.763 555.014 948.633 554.894 Z  M 944.36 548.921 C 944.36 548.02 945.091 547.289 945.992 547.289 C 946.893 547.289 947.625 548.02 947.625 548.921 C 947.625 549.822 946.893 550.554 945.992 550.554 C 945.091 550.554 944.36 549.822 944.36 548.921 Z " fill-rule="evenodd" fill="rgb(87,187,40)"/></g></g></svg>