<?xml version="1.0" encoding="UTF-8" standalone="no"?><!-- Generator: Gravit.io --><svg xmlns="http://www.w3.org/2000/svg" xmlns:xlink="http://www.w3.org/1999/xlink" style="isolation:isolate" viewBox="1028.615 672 28 37.8" width="28pt" height="37.8pt"><defs><clipPath id="_clipPath_pGbeCM6b0XapqAGl75bNEHx3ZWITV5wE"><rect x="1028.615" y="672" width="28" height="37.8"/></clipPath></defs><g clip-path="url(#_clipPath_pGbeCM6b0XapqAGl75bNEHx3ZWITV5wE)"><g><linearGradient id="_lgradient_5" x1="0.19472752397953796" y1="0.1056299931107427" x2="0.9124984740240213" y2="0.8518518518518506" gradientTransform="matrix(28,0,0,37.8,1028.615,672)" gradientUnits="userSpaceOnUse"><stop offset="1.6666666666666667%" stop-opacity="1" style="stop-color:rgb(251,165,178)"/><stop offset="98.33333333333333%" stop-opacity="1" style="stop-color:rgb(245,59,87)"/></linearGradient><path d=" M 1044.015 708.4 C 1044.015 709.173 1043.388 709.8 1042.615 709.8 C 1041.842 709.8 1041.215 709.173 1041.215 708.4 C 1041.215 707.627 1041.842 707 1042.615 707 C 1043.388 707 1044.015 707.627 1044.015 708.4 Z  M 1042.615 672 C 1034.883 672 1028.615 678.268 1028.615 686 C 1028.615 692.287 1032.759 697.606 1038.465 699.374 L 1041.398 704.456 C 1041.889 705.306 1043.116 705.306 1043.606 704.456 L 1046.496 699.451 C 1048.277 698.938 1049.912 698.081 1051.325 696.957 C 1054.548 694.393 1056.615 690.439 1056.615 686 C 1056.615 678.268 1050.347 672 1042.615 672 Z " fill-rule="evenodd" fill="url(#_lgradient_5)"/><circle vector-effect="non-scaling-stroke" cx="1042.7224676233675" cy="686.1076014077845" r="11.307606090231047" fill="rgb(255,255,255)"/><path d=" M 1049.533 691.661 L 1049.533 682.455 L 1050.155 682.455 C 1050.155 682.455 1049.859 679.879 1048.423 679.879 L 1043.102 679.879 L 1042.343 679.879 L 1037.022 679.879 C 1035.586 679.879 1035.291 682.455 1035.291 682.455 L 1035.912 682.455 L 1035.912 691.661 L 1034.897 691.661 L 1034.897 692.336 L 1050.547 692.336 L 1050.547 691.661 L 1049.533 691.661 L 1049.533 691.661 L 1049.533 691.661 Z  M 1043.258 684.893 L 1043.258 687.06 L 1042.188 687.06 L 1042.188 684.893 L 1043.258 684.893 L 1043.258 684.893 Z  M 1039.036 687.06 L 1037.967 687.06 L 1037.967 684.893 L 1039.036 684.893 L 1039.036 687.06 L 1039.036 687.06 Z  M 1041.147 687.06 L 1040.078 687.06 L 1040.078 684.893 L 1041.147 684.893 L 1041.147 687.06 L 1041.147 687.06 Z  M 1043.974 691.661 L 1041.471 691.661 L 1041.471 687.946 L 1043.974 687.946 L 1043.974 691.661 L 1043.974 691.661 L 1043.974 691.661 Z  M 1045.368 687.06 L 1044.299 687.06 L 1044.299 684.893 L 1045.368 684.893 L 1045.368 687.06 L 1045.368 687.06 Z  M 1047.479 687.06 L 1046.41 687.06 L 1046.41 684.893 L 1047.479 684.893 L 1047.479 687.06 L 1047.479 687.06 Z " fill="rgb(245,59,87)"/></g></g></svg>