<?xml version="1.0" encoding="UTF-8" standalone="no"?><!-- Generator: Gravit.io --><svg xmlns="http://www.w3.org/2000/svg" xmlns:xlink="http://www.w3.org/1999/xlink" style="isolation:isolate" viewBox="933.144 668 28 37.8" width="28pt" height="37.8pt"><defs><clipPath id="_clipPath_ymu4uF6Jp4JwaQ8U8IidbIRmThWl5PK8"><rect x="933.144" y="668" width="28" height="37.8"/></clipPath></defs><g clip-path="url(#_clipPath_ymu4uF6Jp4JwaQ8U8IidbIRmThWl5PK8)"><g><linearGradient id="_lgradient_6" x1="0.19472752397953796" y1="0.1056299931107427" x2="0.9124984740240213" y2="0.8518518518518506" gradientTransform="matrix(28,0,0,37.8,933.144,668)" gradientUnits="userSpaceOnUse"><stop offset="0.8333333333333334%" stop-opacity="1" style="stop-color:rgb(253,198,161)"/><stop offset="98.33333333333333%" stop-opacity="1" style="stop-color:rgb(187,99,40)"/></linearGradient><path d=" M 948.544 704.4 C 948.544 705.173 947.918 705.8 947.144 705.8 C 946.371 705.8 945.744 705.173 945.744 704.4 C 945.744 703.627 946.371 703 947.144 703 C 947.918 703 948.544 703.627 948.544 704.4 Z  M 947.144 668 C 939.412 668 933.144 674.268 933.144 682 C 933.144 688.287 937.289 693.606 942.994 695.374 L 945.928 700.456 C 946.419 701.306 947.645 701.306 948.136 700.456 L 951.025 695.451 C 952.806 694.938 954.442 694.081 955.855 692.957 C 959.078 690.393 961.144 686.439 961.144 682 C 961.144 674.268 954.876 668 947.144 668 Z " fill-rule="evenodd" fill="url(#_lgradient_6)"/><circle vector-effect="non-scaling-stroke" cx="947.2520036103238" cy="682.1076014077845" r="11.307606090231047" fill="rgb(255,255,255)"/><g><path d=" M 955.8 681.159 L 947.601 672.96 C 947.408 672.766 947.095 672.766 946.903 672.96 L 938.704 681.159 C 938.562 681.3 938.521 681.512 938.597 681.696 C 938.673 681.881 938.853 682.001 939.053 682.001 L 940.961 682.001 L 941.701 689.507 C 941.701 689.78 941.922 690 942.195 690 L 952.556 690 C 952.829 690 953.05 689.78 953.05 689.507 L 953.543 682.001 L 955.451 682.001 C 955.651 682.001 955.831 681.881 955.907 681.696 C 955.983 681.512 955.942 681.3 955.8 681.159 Z  M 947.252 686.527 C 945.789 686.527 944.6 685.337 944.6 683.875 C 944.6 682.413 945.789 681.223 947.252 681.223 C 948.715 681.223 949.904 682.413 949.904 683.875 C 949.904 685.337 948.715 686.527 947.252 686.527 Z " fill="rgb(187,99,40)"/><path d=" M 947.252 682.21 C 946.334 682.21 945.586 682.957 945.586 683.875 C 945.586 684.794 946.334 685.54 947.252 685.54 C 948.17 685.54 948.917 684.794 948.917 683.875 C 948.917 682.957 948.17 682.21 947.252 682.21 Z " fill="rgb(187,99,40)"/></g></g></g></svg>