<svg xmlns:dc="http://purl.org/dc/elements/1.1/" xmlns:cc="http://creativecommons.org/ns#" xmlns:rdf="http://www.w3.org/1999/02/22-rdf-syntax-ns#" xmlns:svg="http://www.w3.org/2000/svg" xmlns="http://www.w3.org/2000/svg" xmlns:sodipodi="http://sodipodi.sourceforge.net/DTD/sodipodi-0.dtd" xmlns:inkscape="http://www.inkscape.org/namespaces/inkscape" viewBox="0 0 32 40.00000125" version="1.1" x="0px" y="0px"><g transform="translate(0,-1020.3622)"><path style="color:#000000;font-style:normal;font-variant:normal;font-weight:normal;font-stretch:normal;font-size:medium;line-height:normal;font-family:sans-serif;text-indent:0;text-align:start;text-decoration:none;text-decoration-line:none;text-decoration-style:solid;text-decoration-color:#000000;letter-spacing:normal;word-spacing:normal;text-transform:none;direction:ltr;block-progression:tb;writing-mode:lr-tb;baseline-shift:baseline;text-anchor:start;white-space:normal;clip-rule:nonzero;display:inline;overflow:visible;visibility:visible;opacity:1;isolation:auto;mix-blend-mode:normal;color-interpolation:sRGB;color-interpolation-filters:linearRGB;solid-color:#000000;solid-opacity:1;fill:#000000;fill-opacity:1;fill-rule:nonzero;stroke:none;stroke-width:0.99999988;stroke-linecap:round;stroke-linejoin:round;stroke-miterlimit:4;stroke-dasharray:none;stroke-dashoffset:0;stroke-opacity:1;color-rendering:auto;image-rendering:auto;shape-rendering:auto;text-rendering:auto;enable-background:accumulate" d="M 7.890625 5.1386719 L 7.890625 5.140625 C 6.1021101 5.140625 4.640625 6.602025 4.640625 8.390625 L 4.640625 20.015625 C 4.640625 21.804125 6.1089613 23.234375 7.890625 23.234375 L 12.71875 23.234375 L 15.601562 26.681641 A 0.50004994 0.50004994 0 0 0 16.367188 26.681641 L 19.279297 23.232422 L 24.109375 23.232422 C 25.891039 23.232422 27.359375 21.802172 27.359375 20.013672 L 27.359375 8.3886719 C 27.359375 6.6000719 25.89789 5.1386719 24.109375 5.1386719 L 7.890625 5.1386719 z M 7.890625 6.140625 L 24.109375 6.140625 C 25.35682 6.140625 26.359375 7.143125 26.359375 8.390625 L 26.359375 20.015625 C 26.359375 21.263025 25.363671 22.234375 24.109375 22.234375 L 19.046875 22.234375 A 0.50004994 0.50004994 0 0 0 18.664062 22.412109 L 15.986328 25.582031 L 13.335938 22.414062 A 0.50004994 0.50004994 0 0 0 12.953125 22.234375 L 7.890625 22.234375 C 6.6363287 22.234375 5.640625 21.263025 5.640625 20.015625 L 5.640625 8.390625 C 5.640625 7.143125 6.6431799 6.140625 7.890625 6.140625 z M 16.0625 8.4824219 C 12.782084 8.4824219 10.11328 11.159466 10.113281 14.447266 C 10.11328 17.735066 12.782084 20.414062 16.0625 20.414062 C 19.342916 20.414062 22.01172 17.735066 22.011719 14.447266 C 22.01172 11.159466 19.342916 8.4824219 16.0625 8.4824219 z M 16.0625 9.4824219 C 18.800857 9.4824219 21.01172 11.698266 21.011719 14.447266 C 21.01172 17.196266 18.800857 19.414062 16.0625 19.414062 C 13.324143 19.414062 11.11328 17.196266 11.113281 14.447266 C 11.11328 11.698266 13.324143 9.4824219 16.0625 9.4824219 z M 18.171875 12.546875 A 0.50004997 0.50004997 0 0 0 17.830078 12.697266 L 15.400391 15.138672 L 14.287109 14.070312 A 0.50004997 0.50004997 0 0 0 13.925781 13.927734 A 0.50004997 0.50004997 0 0 0 13.595703 14.792969 L 14.96875 16.109375 A 0.50004997 0.50004997 0 0 0 15.757812 16.197266 L 18.539062 13.404297 A 0.50004997 0.50004997 0 0 0 18.171875 12.546875 z " transform="translate(0,1020.3622)"/></g><text x="0" y="47.000001" fill="#000000" font-size="5px" font-weight="bold" font-family="'Helvetica Neue', Helvetica, Arial-Unicode, Arial, Sans-serif">Created by Chameleon Design</text><text x="0" y="52.000001" fill="#000000" font-size="5px" font-weight="bold" font-family="'Helvetica Neue', Helvetica, Arial-Unicode, Arial, Sans-serif">from the Noun Project</text></svg>